<svg width="12" height="19" viewBox="0 0 12 19" fill="none" xmlns="http://www.w3.org/2000/svg">
<path d="M0.749992 8.57031L8.18749 1.13281C8.4427 0.877604 8.7526 0.75 9.11718 0.75C9.48176 0.75 9.79166 0.877604 10.0469 1.13281L11.25 2.39062C11.5052 2.64583 11.6328 2.95573 11.6328 3.32031C11.6328 3.6849 11.5052 3.99479 11.25 4.25L5.99999 9.5L11.25 14.75C11.5052 15.0052 11.6328 15.3151 11.6328 15.6797C11.6328 16.0443 11.5052 16.3542 11.25 16.6094L10.0469 17.8672C9.79166 18.1224 9.48176 18.25 9.11718 18.25C8.7526 18.25 8.4427 18.1224 8.18749 17.8672L0.749992 10.4297C0.494784 10.1745 0.36718 9.86458 0.36718 9.5C0.36718 9.13542 0.494784 8.82552 0.749992 8.57031Z" fill="white"/>
</svg>
