<svg width="12" height="8" viewBox="0 0 12 8" fill="none" xmlns="http://www.w3.org/2000/svg">
<path d="M5.0625 0.875L0.28125 5.65625C0.117188 5.82031 0.0351562 6.01953 0.0351562 6.25391C0.0351562 6.48828 0.117188 6.6875 0.28125 6.85156L1.08984 7.625C1.25391 7.78906 1.45312 7.87109 1.6875 7.87109C1.92188 7.87109 2.12109 7.78906 2.28516 7.625L5.66016 4.25L9.03516 7.625C9.19922 7.78906 9.39844 7.87109 9.63281 7.87109C9.86719 7.87109 10.0664 7.78906 10.2305 7.625L11.0391 6.85156C11.2031 6.6875 11.2852 6.48828 11.2852 6.25391C11.2852 6.01953 11.2031 5.82031 11.0391 5.65625L6.25781 0.875C6.09375 0.710938 5.89453 0.628906 5.66016 0.628906C5.42578 0.628906 5.22656 0.710938 5.0625 0.875Z" fill="url(#paint0_linear_419_488)"/>
<defs>
<linearGradient id="paint0_linear_419_488" x1="1.63026" y1="11.2988" x2="14.6192" y2="3.94219" gradientUnits="userSpaceOnUse">
<stop stop-color="#657093"/>
<stop offset="1" stop-color="#253053"/>
</linearGradient>
</defs>
</svg>
