<svg width="22" height="17" viewBox="0 0 22 17" fill="none" xmlns="http://www.w3.org/2000/svg">
<path d="M21.3125 13.75H2.75V0.6875C2.75 0.34375 2.40625 0 2.0625 0H0.6875C0.300781 0 0 0.34375 0 0.6875V15.125C0 15.8984 0.601562 16.5 1.375 16.5H21.3125C21.6562 16.5 22 16.1992 22 15.8125V14.4375C22 14.0938 21.6562 13.75 21.3125 13.75ZM19.9375 1.375H14.8242C13.9219 1.375 13.4492 2.49219 14.0938 3.13672L15.5117 4.55469L12.375 7.69141L9.19531 4.55469C8.67969 3.99609 7.77734 3.99609 7.26172 4.55469L4.29688 7.51953C4.03906 7.77734 4.03906 8.20703 4.29688 8.46484L5.28516 9.45312C5.54297 9.71094 5.97266 9.71094 6.23047 9.45312L8.25 7.47656L11.3867 10.6133C11.9023 11.1719 12.8047 11.1719 13.3203 10.6133L17.4453 6.48828L18.8633 7.90625C19.5078 8.55078 20.582 8.07812 20.582 7.17578V2.0625C20.625 1.71875 20.2812 1.375 19.9375 1.375Z" fill="white"/>
</svg>
