<svg width="12" height="12" viewBox="0 0 12 12" fill="none" xmlns="http://www.w3.org/2000/svg">
<path d="M7.625 6L10.75 9.125C10.9375 9.3125 11.0312 9.54167 11.0312 9.8125C11.0312 10.0833 10.9375 10.3229 10.75 10.5312L10.0625 11.2188C9.85417 11.4062 9.61458 11.5 9.34375 11.5C9.07292 11.5 8.84375 11.4062 8.65625 11.2188L5.53125 8.09375L2.40625 11.2188C2.21875 11.4062 1.98958 11.5 1.71875 11.5C1.44792 11.5 1.20833 11.4062 1 11.2188L0.3125 10.5312C0.125 10.3229 0.03125 10.0833 0.03125 9.8125C0.03125 9.54167 0.125 9.3125 0.3125 9.125L3.4375 6L0.3125 2.875C0.125 2.6875 0.03125 2.45833 0.03125 2.1875C0.03125 1.91667 0.125 1.67708 0.3125 1.46875L1 0.78125C1.20833 0.59375 1.44792 0.5 1.71875 0.5C1.98958 0.5 2.21875 0.59375 2.40625 0.78125L5.53125 3.90625L8.65625 0.78125C8.84375 0.59375 9.07292 0.5 9.34375 0.5C9.61458 0.5 9.85417 0.59375 10.0625 0.78125L10.75 1.46875C10.9375 1.67708 11.0312 1.91667 11.0312 2.1875C11.0312 2.45833 10.9375 2.6875 10.75 2.875L7.625 6Z" fill="#DB0808"/>
</svg>
