<svg width="24" height="23" viewBox="0 0 24 23" fill="none" xmlns="http://www.w3.org/2000/svg">
<path d="M22.9805 12.625C23.181 12.625 23.3529 12.7109 23.4961 12.8828C23.6393 13.026 23.6966 13.1979 23.668 13.3984C23.3242 15.776 22.2786 17.7956 20.5312 19.457C20.2161 19.7435 19.901 19.7292 19.5859 19.4141L12.7539 12.625H22.9805ZM22.293 9.83203C22.293 10.0326 22.2214 10.2044 22.0781 10.3477C21.9635 10.4909 21.806 10.5625 21.6055 10.5625H11.9805V0.9375C11.9805 0.736979 12.0521 0.579427 12.1953 0.464844C12.3385 0.321615 12.5104 0.25 12.7109 0.25C15.2604 0.421875 17.4518 1.42448 19.2852 3.25781C21.1185 5.09115 22.1211 7.28255 22.293 9.83203ZM9.91797 12.625L16.6211 19.3281C16.7643 19.4714 16.8216 19.6432 16.793 19.8438C16.793 20.0729 16.707 20.2448 16.5352 20.3594C14.8164 21.5911 12.8828 22.2214 10.7344 22.25C7.98438 22.2786 5.57812 21.319 3.51562 19.3711C1.45312 17.3945 0.378906 15.0312 0.292969 12.2812C0.207031 9.64583 1.00911 7.32552 2.69922 5.32031C4.41797 3.28646 6.56641 2.09766 9.14453 1.75391C9.34505 1.72526 9.51693 1.78255 9.66016 1.92578C9.83203 2.04036 9.91797 2.21224 9.91797 2.44141V12.625Z" fill="#999999"/>
</svg>
