<svg width="24" height="24" viewBox="0 0 24 24" fill="none" xmlns="http://www.w3.org/2000/svg">
<g clip-path="url(#clip0_424_1143)">
<path d="M11.997 23.9999C11.4221 23.8059 11.3159 23.6558 11.3159 23.0239C11.3159 22.636 11.3159 22.2481 11.3159 21.8477C15.5523 21.8477 19.7575 21.8477 23.9876 21.8477C23.9876 22.3669 24.0126 22.8737 23.9814 23.3742C23.9501 23.7621 23.6502 23.9311 23.2941 23.9999C19.5263 23.9999 15.7648 23.9999 11.997 23.9999Z" fill="white"/>
<path d="M-0.000465494 13.2513C0.124502 13.0824 0.230724 12.901 0.374437 12.7571C1.19922 11.925 2.04275 11.1116 2.84879 10.2607C3.31742 9.76645 3.75481 9.74769 4.22968 10.267C4.67957 10.7612 5.17319 11.218 5.62307 11.6747C6.22291 11.0803 6.81026 10.4985 7.40386 9.91035C7.27889 9.9041 7.14767 9.89784 7.02271 9.87907C6.6728 9.82902 6.41661 9.53496 6.41661 9.1846C6.41661 8.83423 6.6728 8.50889 7.02895 8.50264C7.78501 8.48387 8.54106 8.48387 9.29711 8.50889C9.62828 8.52141 9.87196 8.82172 9.87821 9.16583C9.89071 9.88533 9.89071 10.6048 9.87821 11.3243C9.87196 11.7122 9.55955 12 9.17839 12C8.80349 12 8.49732 11.7122 8.47858 11.3243C8.47233 11.1992 8.47858 11.0741 8.47858 10.9051C8.3911 10.9802 8.33486 11.0303 8.28488 11.0803C7.62255 11.7435 6.96022 12.4067 6.29789 13.0699C5.82927 13.5391 5.4981 13.5391 5.02323 13.0636C4.53585 12.5694 4.04223 12.0814 3.53611 11.5746C3.46113 11.6434 3.4049 11.6997 3.34241 11.756C2.66759 12.4317 1.99901 13.1074 1.32419 13.7769C0.805575 14.2962 0.32445 14.2274 -0.00671387 13.5767C-0.000465494 13.4703 -0.000465494 13.364 -0.000465494 13.2513Z" fill="white"/>
<path d="M0.749989 24C0.162642 23.8248 0.0501709 23.6621 0.0501709 23.0427C0.0501709 22.6548 0.0501709 22.2607 0.0501709 21.854C3.33681 21.854 6.61096 21.854 9.91635 21.854C9.91635 22.0104 9.91635 22.1731 9.91635 22.3358C9.9101 22.8926 9.90385 23.4432 9.89136 24C6.84215 24 3.79919 24 0.749989 24Z" fill="white"/>
<path d="M12.022 5.63088C12.0282 2.51513 14.5526 -0.0062449 17.658 1.16185e-05C20.776 1.16185e-05 23.3003 2.54016 23.2941 5.66216C23.2816 8.62149 20.9447 11.3181 17.6018 11.2868C14.3276 11.2492 12.0157 8.60272 12.022 5.63088ZM16.9145 8.8217C16.9082 8.80293 16.9145 8.8217 16.9207 8.84673C16.977 9.27217 17.2706 9.54746 17.6393 9.53494C18.0204 9.52243 18.2829 9.24089 18.3328 8.81544C18.3391 8.74662 18.4141 8.65277 18.4828 8.62149C19.2951 8.22108 19.7512 7.48281 19.6887 6.60064C19.6325 5.71221 19.1076 5.19292 18.3016 4.89886C18.0017 4.7925 17.708 4.65486 17.4206 4.52347C17.2644 4.4484 17.1207 4.31075 17.1894 4.14183C17.2331 4.0167 17.3768 3.89157 17.5081 3.84777C17.7955 3.75392 18.0517 3.86028 18.2829 4.05423C18.5953 4.32327 19.0139 4.29198 19.2701 4.00418C19.5263 3.71638 19.52 3.28468 19.2139 3.01565C19.0014 2.82796 18.739 2.69031 18.4891 2.55267C18.3891 2.50262 18.3391 2.46508 18.3204 2.33995C18.2704 1.96456 17.9704 1.72681 17.608 1.73307C17.2581 1.73932 16.977 1.99584 16.9332 2.35872C16.9207 2.48385 16.8895 2.54641 16.7708 2.60272C16.1147 2.92806 15.7898 3.48489 15.7648 4.19813C15.7398 4.89261 16.0772 5.39939 16.6833 5.70595C17.0707 5.90616 17.4768 6.06258 17.883 6.2315C18.2204 6.3754 18.3329 6.52556 18.2891 6.81961C18.2454 7.11993 18.0079 7.34516 17.708 7.37019C17.3519 7.40147 17.0144 7.35768 16.702 7.14495C16.3584 6.91346 15.921 7.03234 15.721 7.36393C15.5148 7.70178 15.6148 8.12723 15.9835 8.33995C16.2584 8.52764 16.5708 8.65903 16.9145 8.8217Z" fill="white"/>
<path d="M23.9875 14.7715C23.9875 15.4847 23.9875 16.1729 23.9875 16.8737C19.7761 16.8737 15.5647 16.8737 11.3408 16.8737C11.3408 16.1792 11.3408 15.4785 11.3408 14.7715C15.5522 14.7715 19.7574 14.7715 23.9875 14.7715Z" fill="white"/>
<path d="M11.3346 20.4089C11.3346 19.7082 11.3346 19.02 11.3346 18.313C15.5522 18.313 19.7574 18.313 23.9813 18.313C23.9813 19.0075 23.9813 19.6957 23.9813 20.4089C19.7699 20.4089 15.5585 20.4089 11.3346 20.4089Z" fill="white"/>
<path d="M11.3284 13.339C11.3284 12.8573 11.3097 12.4005 11.3347 11.9376C11.3534 11.5872 11.6283 11.3432 11.9782 11.3119C12.0532 11.3057 12.1344 11.3057 12.2094 11.3057C15.8397 11.3057 19.47 11.3057 23.1004 11.3057C23.7502 11.3057 23.9939 11.5434 23.9939 12.1941C23.9939 12.5695 23.9939 12.9449 23.9939 13.3328C19.77 13.339 15.5586 13.339 11.3284 13.339Z" fill="white"/>
<path d="M9.8975 20.4277C6.59836 20.4277 3.34296 20.4277 0.0625656 20.4277C0.0625656 19.9146 0.0375721 19.4078 0.0688139 18.9073C0.0938074 18.5945 0.381233 18.3755 0.706148 18.3505C0.768632 18.3442 0.831115 18.3442 0.893599 18.3442C3.80534 18.3442 6.71708 18.3442 9.62257 18.3442C9.71005 18.3442 9.79128 18.3442 9.89126 18.3442C9.8975 19.0512 9.8975 19.7332 9.8975 20.4277Z" fill="white"/>
</g>
<defs>
<clipPath id="clip0_424_1143">
<rect width="24" height="24" fill="white"/>
</clipPath>
</defs>
</svg>
