<svg width="130" height="25" viewBox="0 0 130 25" fill="none" xmlns="http://www.w3.org/2000/svg">
<path d="M19.5781 4.4375H12.4844V24H8.5625V4.4375H1.53125V1.25H19.5781V4.4375ZM30.0312 10.5625C29.5312 10.4792 29.0156 10.4375 28.4844 10.4375C26.7448 10.4375 25.5729 11.1042 24.9688 12.4375V24H21.1719V7.09375H24.7969L24.8906 8.98438C25.8073 7.51562 27.0781 6.78125 28.7031 6.78125C29.2448 6.78125 29.6927 6.85417 30.0469 7L30.0312 10.5625ZM42.0625 24C41.8958 23.6771 41.75 23.151 41.625 22.4219C40.4167 23.6823 38.9375 24.3125 37.1875 24.3125C35.4896 24.3125 34.1042 23.8281 33.0312 22.8594C31.9583 21.8906 31.4219 20.6927 31.4219 19.2656C31.4219 17.4635 32.0885 16.0833 33.4219 15.125C34.7656 14.1562 36.6823 13.6719 39.1719 13.6719H41.5V12.5625C41.5 11.6875 41.2552 10.9896 40.7656 10.4688C40.276 9.9375 39.5312 9.67188 38.5312 9.67188C37.6667 9.67188 36.9583 9.89062 36.4062 10.3281C35.8542 10.7552 35.5781 11.3021 35.5781 11.9688H31.7812C31.7812 11.0417 32.0885 10.1771 32.7031 9.375C33.3177 8.5625 34.151 7.92708 35.2031 7.46875C36.2656 7.01042 37.4479 6.78125 38.75 6.78125C40.7292 6.78125 42.3073 7.28125 43.4844 8.28125C44.6615 9.27083 45.2656 10.6667 45.2969 12.4688V20.0938C45.2969 21.6146 45.5104 22.8281 45.9375 23.7344V24H42.0625ZM37.8906 21.2656C38.6406 21.2656 39.3438 21.0833 40 20.7188C40.6667 20.3542 41.1667 19.8646 41.5 19.25V16.0625H39.4531C38.0469 16.0625 36.9896 16.3073 36.2812 16.7969C35.5729 17.2865 35.2188 17.9792 35.2188 18.875C35.2188 19.6042 35.4583 20.1875 35.9375 20.625C36.4271 21.0521 37.0781 21.2656 37.8906 21.2656ZM56.2188 21.2812C57.1667 21.2812 57.9531 21.0052 58.5781 20.4531C59.2031 19.901 59.5365 19.2188 59.5781 18.4062H63.1562C63.1146 19.4583 62.7865 20.4427 62.1719 21.3594C61.5573 22.2656 60.724 22.9844 59.6719 23.5156C58.6198 24.0469 57.4844 24.3125 56.2656 24.3125C53.901 24.3125 52.026 23.5469 50.6406 22.0156C49.2552 20.4844 48.5625 18.3698 48.5625 15.6719V15.2812C48.5625 12.7083 49.25 10.651 50.625 9.10938C52 7.55729 53.875 6.78125 56.25 6.78125C58.2604 6.78125 59.8958 7.36979 61.1562 8.54688C62.4271 9.71354 63.0938 11.25 63.1562 13.1562H59.5781C59.5365 12.1875 59.2031 11.3906 58.5781 10.7656C57.9635 10.1406 57.1771 9.82812 56.2188 9.82812C54.9896 9.82812 54.0417 10.276 53.375 11.1719C52.7083 12.0573 52.3698 13.4062 52.3594 15.2188V15.8281C52.3594 17.6615 52.6875 19.0312 53.3438 19.9375C54.0104 20.8333 54.9688 21.2812 56.2188 21.2812ZM71.5156 16.75L69.8281 18.4844V24H66.0312V0H69.8281V13.8438L71.0156 12.3594L75.6875 7.09375H80.25L73.9688 14.1406L80.9219 24H76.5312L71.5156 16.75ZM89.875 24.3125C87.4688 24.3125 85.5156 23.5573 84.0156 22.0469C82.526 20.526 81.7812 18.5052 81.7812 15.9844V15.5156C81.7812 13.8281 82.1042 12.3229 82.75 11C83.4062 9.66667 84.3229 8.63021 85.5 7.89062C86.6771 7.15104 87.9896 6.78125 89.4375 6.78125C91.7396 6.78125 93.5156 7.51562 94.7656 8.98438C96.026 10.4531 96.6562 12.5312 96.6562 15.2188V16.75H85.6094C85.724 18.1458 86.1875 19.25 87 20.0625C87.8229 20.875 88.8542 21.2812 90.0938 21.2812C91.8333 21.2812 93.25 20.5781 94.3438 19.1719L96.3906 21.125C95.7135 22.1354 94.8073 22.9219 93.6719 23.4844C92.5469 24.0365 91.2812 24.3125 89.875 24.3125ZM89.4219 9.82812C88.3802 9.82812 87.5365 10.1927 86.8906 10.9219C86.2552 11.651 85.849 12.6667 85.6719 13.9688H92.9062V13.6875C92.8229 12.4167 92.4844 11.4583 91.8906 10.8125C91.2969 10.1562 90.474 9.82812 89.4219 9.82812ZM108.469 10.5625C107.969 10.4792 107.453 10.4375 106.922 10.4375C105.182 10.4375 104.01 11.1042 103.406 12.4375V24H99.6094V7.09375H103.234L103.328 8.98438C104.245 7.51562 105.516 6.78125 107.141 6.78125C107.682 6.78125 108.13 6.85417 108.484 7L108.469 10.5625ZM119.062 9.46875L123.844 1.25H128.406L121.531 12.5312L128.562 24H123.953L119.062 15.6562L114.156 24H109.562L116.609 12.5312L109.719 1.25H114.281L119.062 9.46875Z" fill="url(#paint0_linear_429_2585)"/>
<path d="M119.016 9.46875L123.797 1.25H128.359L121.484 12.5312L128.516 24H123.906L119.016 15.6562L114.109 24H109.516L116.562 12.5312L109.672 1.25H114.234L119.016 9.46875Z" fill="url(#paint1_linear_429_2585)"/>
<defs>
<linearGradient id="paint0_linear_429_2585" x1="18.0253" y1="4.65854" x2="24.3021" y2="38.0978" gradientUnits="userSpaceOnUse">
<stop stop-color="#657093"/>
<stop offset="1" stop-color="#253053"/>
</linearGradient>
<linearGradient id="paint1_linear_429_2585" x1="108.5" y1="-8.92047" x2="137.11" y2="-3.40454" gradientUnits="userSpaceOnUse">
<stop stop-color="#177BEA"/>
<stop offset="1" stop-color="#8829F6"/>
</linearGradient>
</defs>
</svg>
