<svg width="30" height="21" viewBox="0 0 30 21" fill="none" xmlns="http://www.w3.org/2000/svg">
<path d="M12.7988 8.89258C11.8105 9.88086 10.6276 10.375 9.25 10.375C7.8724 10.375 6.68945 9.88086 5.70117 8.89258C4.71289 7.9043 4.21875 6.72135 4.21875 5.34375C4.21875 3.96615 4.71289 2.7832 5.70117 1.79492C6.68945 0.806641 7.8724 0.3125 9.25 0.3125C10.6276 0.3125 11.8105 0.806641 12.7988 1.79492C13.7871 2.7832 14.2812 3.96615 14.2812 5.34375C14.2812 6.72135 13.7871 7.9043 12.7988 8.89258ZM12.709 11.8125C14.1465 11.8125 15.3594 12.3216 16.3477 13.3398C17.3659 14.3281 17.875 15.541 17.875 16.9785V18.2812C17.875 18.8802 17.6654 19.3893 17.2461 19.8086C16.8268 20.2279 16.3177 20.4375 15.7188 20.4375H2.78125C2.18229 20.4375 1.67318 20.2279 1.25391 19.8086C0.834635 19.3893 0.625 18.8802 0.625 18.2812V16.9785C0.625 15.541 1.11914 14.3281 2.10742 13.3398C3.12565 12.3216 4.35352 11.8125 5.79102 11.8125H6.19531C7.18359 12.2917 8.20182 12.5312 9.25 12.5312C10.2982 12.5312 11.3164 12.2917 12.3047 11.8125H12.709ZM25.2422 9.11719C24.4036 9.95573 23.3854 10.375 22.1875 10.375C20.9896 10.375 19.9714 9.95573 19.1328 9.11719C18.2943 8.27865 17.875 7.26042 17.875 6.0625C17.875 4.86458 18.2943 3.84635 19.1328 3.00781C19.9714 2.16927 20.9896 1.75 22.1875 1.75C23.3854 1.75 24.4036 2.16927 25.2422 3.00781C26.0807 3.84635 26.5 4.86458 26.5 6.0625C26.5 7.26042 26.0807 8.27865 25.2422 9.11719ZM24.3438 11.8125C25.7214 11.8125 26.9043 12.3066 27.8926 13.2949C28.8809 14.2832 29.375 15.4661 29.375 16.8438C29.375 17.4427 29.1654 17.9518 28.7461 18.3711C28.3268 18.7904 27.8177 19 27.2188 19H19.2676C19.2676 18.9701 19.2676 18.9251 19.2676 18.8652C19.2975 18.8053 19.3125 18.7604 19.3125 18.7305V16.9785C19.3125 15.2715 18.7135 13.7741 17.5156 12.4863C18.3242 12.0371 19.1628 11.8125 20.0312 11.8125H20.2109C20.8997 12.0521 21.5586 12.1719 22.1875 12.1719C22.8164 12.1719 23.4753 12.0521 24.1641 11.8125H24.3438Z" fill="white"/>
</svg>
