<svg width="27" height="27" viewBox="0 0 27 27" fill="none" xmlns="http://www.w3.org/2000/svg">
<g clip-path="url(#clip0_2014_30)">
<path d="M20.381 16.5121C19.8417 17.1565 19.236 17.6851 18.5638 18.1195C18.1575 18.3874 17.7955 18.6988 17.5443 19.1187C17.271 19.5676 17.1528 20.0528 17.1528 20.5741C17.1528 21.1099 17.1602 21.6457 17.1528 22.1815C17.138 23.13 16.5618 23.6948 15.5794 23.702C14.4122 23.7092 13.245 23.7092 12.0852 23.702C11.1175 23.6948 10.5487 23.1372 10.5339 22.196C10.5266 21.5443 10.5413 20.8927 10.5044 20.2483C10.4601 19.4373 10.0759 18.7784 9.39632 18.3223C8.36951 17.6272 7.44612 16.838 6.75911 15.8026C5.58456 14.0431 5.11917 12.1171 5.42204 10.0318C5.76185 7.68591 6.92902 5.81061 8.87922 4.42042C10.3788 3.34882 12.0779 2.83474 13.9394 2.86371C13.9837 2.86371 14.0281 2.87095 14.065 2.87819C14.065 2.90715 14.0724 2.92887 14.065 2.93611C13.6144 3.3271 13.607 3.45019 13.969 3.92807C14.2571 4.30458 14.5452 4.68832 14.8406 5.06483C14.9884 5.26033 15.0918 5.45582 14.9441 5.68752C14.7963 5.91922 14.5673 5.92646 14.3235 5.89026C13.7991 5.81785 13.2746 5.74544 12.7575 5.6658C12.366 5.60787 12.1591 5.74544 12.1 6.12919C11.9597 7.0053 11.8341 7.88141 11.7159 8.76475C11.6716 9.0761 11.8489 9.27883 12.1813 9.32951C12.6984 9.40916 13.2081 9.46709 13.7252 9.54673C13.8877 9.57569 14.065 9.6119 14.198 9.70602C14.4491 9.88704 14.3974 10.2273 14.1167 10.4446C13.6883 10.7631 13.2598 11.0745 12.8313 11.3931C12.4398 11.6827 12.4103 11.8999 12.6984 12.2764C13.2007 12.9281 13.6956 13.587 14.198 14.2386C14.4861 14.6151 14.7077 14.6441 15.0992 14.3617C15.5055 14.0648 15.9192 13.7607 16.3255 13.4566C16.5249 13.3118 16.7244 13.2104 16.9681 13.348C17.2045 13.4856 17.2119 13.7173 17.1824 13.949C17.1085 14.4775 17.0272 15.0061 16.946 15.5419C16.9017 15.8677 17.042 16.0777 17.3744 16.1284C18.3052 16.266 19.236 16.3963 20.1668 16.5266C20.2111 16.5339 20.2702 16.5194 20.381 16.5121ZM14.3088 19.9804C14.294 19.307 14.1389 18.706 13.8212 18.134C13.3263 17.2434 12.5506 16.6932 11.6199 16.2949C7.94106 14.7165 7.00289 10.1767 9.77307 7.32388C10.0759 7.01254 10.4379 6.75188 10.7925 6.44778C10.6374 6.20884 10.4822 5.96266 10.3271 5.72372C10.2754 5.7382 10.2606 5.7382 10.2458 5.75268C10.2089 5.77441 10.172 5.79613 10.135 5.82509C8.47293 6.9691 7.49044 8.52581 7.27621 10.5025C7.04721 12.6964 7.8007 14.5355 9.44803 16.0343C10.0907 16.6207 10.859 16.9828 11.642 17.3376C12.5063 17.7285 13.0456 18.4019 13.2746 19.307C13.3263 19.5242 13.3484 19.7487 13.3854 19.9804C13.6956 19.9804 13.9837 19.9804 14.3088 19.9804ZM13.378 20.9361C13.378 21.3995 13.378 21.8412 13.378 22.2901C13.6956 22.2901 13.9911 22.2901 14.3014 22.2901C14.3014 21.8339 14.3014 21.385 14.3014 20.9361C13.9911 20.9361 13.703 20.9361 13.378 20.9361Z" fill="white"/>
<path d="M14.7522 13.4422C14.368 12.9426 14.0061 12.4647 13.6219 11.9651C13.9913 11.69 14.3607 11.4293 14.7152 11.1542C15.3431 10.6618 15.4687 9.87984 15.0403 9.24991C14.7817 8.8734 14.405 8.69963 13.9544 8.64171C13.5481 8.59102 13.1418 8.52586 12.7059 8.46793C12.7946 7.85973 12.8832 7.25876 12.9719 6.63608C13.4225 6.694 13.8509 6.75193 14.2794 6.80985C14.9147 6.89674 15.4244 6.68676 15.7494 6.1582C16.0745 5.6224 16.0228 5.07936 15.646 4.57976C15.3875 4.23222 15.1215 3.89191 14.8482 3.52988C15.3505 3.16062 15.8455 2.79859 16.3552 2.42208C16.6359 2.79135 16.9018 3.15338 17.1825 3.50092C17.8917 4.36255 19.1992 4.21049 19.6203 3.20406C19.7237 2.95064 19.7459 2.66102 19.7976 2.38588C19.8493 2.11074 19.8789 1.8356 19.9232 1.53149C20.2482 1.57494 20.5511 1.61114 20.8613 1.65458C21.1642 1.69803 21.4597 1.74147 21.7921 1.79215C21.733 2.22659 21.6739 2.65378 21.6074 3.07373C21.5188 3.68194 21.7256 4.17429 22.2575 4.50012C22.7894 4.82594 23.336 4.78974 23.8458 4.44219C24.2225 4.18877 24.5771 3.91363 24.9612 3.63125C25.338 4.12361 25.7073 4.60872 26.0914 5.10832C25.7221 5.38346 25.3453 5.64412 24.9908 5.91926C24.1117 6.61436 24.2668 7.90317 25.2936 8.30864C25.5596 8.41725 25.8698 8.43897 26.1579 8.48242C26.4313 8.52586 26.7046 8.56206 27.0001 8.6055C26.9114 9.21371 26.8228 9.81468 26.7341 10.4301C26.2909 10.3722 25.8698 10.3143 25.4488 10.2563C24.8209 10.1622 24.3185 10.3722 23.9639 10.8863C23.6463 11.3569 23.6832 11.9651 24.0452 12.472C24.1708 12.653 24.3111 12.8267 24.4441 13.0005C24.5771 13.1743 24.71 13.3481 24.8578 13.5436C24.3555 13.9128 23.8605 14.2748 23.3508 14.6586C23.0775 14.3038 22.8116 13.9418 22.5382 13.6015C21.8217 12.7109 20.4772 12.8702 20.0783 13.8983C19.9749 14.159 19.9601 14.4414 19.9084 14.7238C19.8641 14.9917 19.8271 15.2596 19.7828 15.5492C19.1549 15.4623 18.5492 15.3754 17.9139 15.2885C17.973 14.8541 18.0321 14.4269 18.0912 14.0069C18.1798 13.3915 17.973 12.8847 17.4263 12.5661C16.8944 12.2475 16.3478 12.2909 15.8381 12.6457C15.4909 12.8919 15.1363 13.1598 14.7522 13.4422ZM22.7007 8.52586C22.6934 7.00534 21.3858 5.73825 19.8493 5.74549C18.3054 5.75997 17.0053 7.04155 17.0274 8.54758C17.0422 10.0536 18.3349 11.3135 19.8715 11.3135C21.4006 11.3135 22.7081 10.0247 22.7007 8.52586Z" fill="white"/>
<path d="M4.95665 12.5588C5.06746 13.0295 5.18565 13.5074 5.29646 13.978C3.59742 14.55 2.8587 15.3899 2.84393 16.7511C2.82915 17.9169 3.59003 18.9812 4.72765 19.3722C5.99824 19.8139 7.08415 19.4012 8.20699 18.0472C8.70932 18.4744 9.352 18.735 9.71397 19.3288C9.97991 19.756 9.98729 19.7487 9.6401 20.0963C9.4111 20.328 9.18948 20.5669 8.96048 20.8058C8.62067 20.5814 8.33257 20.3786 8.0297 20.1831C7.35008 19.7342 6.63353 20.0166 6.46363 20.8131C6.38976 21.1534 6.31588 21.4937 6.23463 21.8557C5.90221 21.8557 5.57717 21.863 5.25952 21.8485C5.19304 21.8485 5.09701 21.7471 5.08223 21.6819C5.00097 21.3706 4.94926 21.0448 4.86801 20.7334C4.69071 20.0239 3.98894 19.756 3.36103 20.1614C3.05077 20.3642 2.74051 20.5741 2.43764 20.7841C2.14954 20.4945 1.87621 20.2193 1.58073 19.9297C1.76541 19.6691 1.96486 19.3794 2.1717 19.0898C2.63709 18.4164 2.36377 17.7286 1.55857 17.5476C1.27047 17.4824 0.98237 17.4173 0.694271 17.3666C0.539141 17.3448 0.472657 17.2869 0.480044 17.1276C0.487432 16.8815 0.472657 16.6353 0.487432 16.3891C0.494819 16.3167 0.583464 16.2081 0.649949 16.1864C0.960209 16.0995 1.27786 16.0488 1.5955 15.9764C2.33422 15.8098 2.62232 15.1148 2.20864 14.4921C2.0018 14.1807 1.78757 13.8839 1.58073 13.587C1.86883 13.3046 2.14215 13.0295 2.44502 12.7326C2.68141 12.8919 2.94735 13.0367 3.17635 13.225C3.87813 13.8115 4.77936 13.5725 4.95665 12.5588Z" fill="white"/>
<path d="M15.7198 26.041C15.7198 26.2438 15.7345 26.4248 15.7198 26.6058C15.6754 27.0402 15.2913 27.3878 14.8259 27.4022C14.1758 27.4167 13.5184 27.4167 12.8683 27.4022C12.3586 27.3878 11.9819 27.004 11.9597 26.5044C11.9523 26.3596 11.9597 26.2075 11.9597 26.041C13.2081 26.041 14.4492 26.041 15.7198 26.041Z" fill="white"/>
<path d="M4.66114 5.25325C4.47646 5.50667 4.30656 5.74561 4.11449 6.00627C3.00642 5.23877 1.92051 4.47127 0.805054 3.69654C0.982345 3.45036 1.15225 3.20418 1.34431 2.93628C2.445 3.70378 3.5383 4.47127 4.66114 5.25325Z" fill="white"/>
<path d="M4.01879 8.39587C2.7482 8.70722 1.50716 9.01132 0.243957 9.32266C0.170085 9.0258 0.0888269 8.74342 0.00756836 8.42484C1.27077 8.11349 2.5192 7.80939 3.78978 7.49805C3.87104 7.80939 3.94491 8.09177 4.01879 8.39587Z" fill="white"/>
<path d="M5.82099 4.34812C5.49595 3.09551 5.17831 1.88634 4.85327 0.648201C5.15614 0.568555 5.44424 0.49615 5.76928 0.416504C6.09431 1.6474 6.41196 2.87105 6.73699 4.12366C6.43412 4.19607 6.13863 4.26847 5.82099 4.34812Z" fill="white"/>
<path d="M11.9672 25.0703C11.9672 24.7662 11.9672 24.4766 11.9672 24.1797C13.223 24.1797 14.464 24.1797 15.7198 24.1797C15.7198 24.4838 15.7198 24.7662 15.7198 25.0703C14.4714 25.0703 13.2304 25.0703 11.9672 25.0703Z" fill="white"/>
<path d="M22.0505 20.8131C22.2574 20.5669 22.4494 20.3497 22.6563 20.1035C23.6018 20.8783 24.5326 21.6385 25.4929 22.4133C25.2935 22.6522 25.1014 22.8766 24.8872 23.1228C23.9416 22.3553 23.0109 21.5951 22.0505 20.8131Z" fill="white"/>
<path d="M22.8336 18.5904C22.8336 18.2791 22.8336 17.9967 22.8336 17.6926C22.9223 17.6854 23.0035 17.6781 23.0774 17.6781C24.0082 17.6781 24.939 17.6854 25.8697 17.6709C26.0618 17.6709 26.1505 17.7071 26.1357 17.9171C26.1209 18.1343 26.1283 18.3515 26.1283 18.5904C25.0276 18.5904 23.9417 18.5904 22.8336 18.5904Z" fill="white"/>
<path d="M20.9204 24.6143C20.6101 24.6143 20.3147 24.6143 20.0044 24.6143C20.0044 23.5499 20.0044 22.4856 20.0044 21.4067C20.3073 21.4067 20.6028 21.4067 20.9204 21.4067C20.9204 22.4711 20.9204 23.5282 20.9204 24.6143Z" fill="white"/>
<path d="M20.6765 16.0705C20.7652 15.484 20.8464 14.8975 20.9424 14.3182C20.9868 14.0648 21.201 13.92 21.4448 13.949C21.7107 13.9779 21.8067 14.1227 21.7033 14.3689C21.4448 14.9771 21.1271 15.5564 20.6765 16.0705Z" fill="white"/>
</g>
<defs>
<clipPath id="clip0_2014_30">
<rect width="27" height="27" fill="white"/>
</clipPath>
</defs>
</svg>
