<svg width="20" height="24" viewBox="0 0 20 24" fill="none" xmlns="http://www.w3.org/2000/svg">
<g clip-path="url(#clip0_424_1153)">
<path d="M19.4512 24C14.3848 24 9.31847 24 4.25213 24C4.25213 23.9707 4.24609 23.9355 4.24609 23.9062C4.24609 17.3145 4.24609 10.7227 4.24609 4.13086C4.24609 4.06055 4.25212 3.99609 4.25816 3.91406C9.49941 3.91406 14.7286 3.91406 19.988 3.91406C19.988 4.02539 19.988 4.125 19.988 4.22461C19.988 10.5059 19.9819 16.7812 19.994 23.0625C20 23.502 19.8673 23.8184 19.4512 24ZM11.1038 10.2891C11.1038 10.1719 11.1038 10.0898 11.1038 10.002C11.1038 9.22266 11.1038 8.44336 11.1038 7.6582C11.1038 7.125 10.766 6.82031 10.2111 6.86133C10.1086 6.86719 10 6.87891 9.89748 6.88477C7.40653 7.10742 5.61521 9.56836 6.20026 11.9355C6.70689 13.9863 8.75755 15.4277 11.0314 15.0996C13.0459 14.8066 14.6924 12.9609 14.6321 10.9922C14.62 10.623 14.3607 10.3418 13.9807 10.3008C13.8721 10.2891 13.7576 10.2891 13.643 10.2891C12.8106 10.2891 11.9723 10.2891 11.1038 10.2891ZM11.6647 7.30078C11.6647 7.86328 11.6586 8.42578 11.6647 8.98828C11.6707 9.46289 11.9662 9.74414 12.4548 9.75C13.5947 9.75586 14.7346 9.75586 15.8806 9.75C16.3752 9.75 16.6707 9.43945 16.6647 8.96484C16.6285 6.75586 14.8251 4.97461 12.5573 4.88672C11.9723 4.86328 11.6707 5.13867 11.6707 5.70703C11.6647 6.23437 11.6647 6.76758 11.6647 7.30078ZM11.3028 18.1816C12.9433 18.1816 14.5838 18.1816 16.2183 18.1816C16.345 18.1816 16.4777 18.1758 16.5983 18.1465C16.924 18.0645 17.1411 17.7832 17.1351 17.4551C17.1291 17.127 16.912 16.8516 16.5802 16.7754C16.4656 16.7461 16.339 16.7461 16.2244 16.7461C12.9373 16.7461 9.65019 16.7461 6.3631 16.7461C6.26057 16.7461 6.152 16.7461 6.04947 16.7637C5.67553 16.834 5.43427 17.127 5.44634 17.4961C5.4584 17.9121 5.78409 18.1875 6.27866 18.1875C7.96141 18.1816 9.6321 18.1816 11.3028 18.1816ZM11.2847 20.918C12.8528 20.918 14.421 20.918 15.9831 20.918C16.146 20.918 16.3028 20.9238 16.4656 20.9121C16.8516 20.8828 17.1351 20.584 17.1351 20.2148C17.1411 19.834 16.8516 19.5293 16.4596 19.5C16.3691 19.4941 16.2847 19.4941 16.1942 19.4941C12.9252 19.4941 9.65623 19.4941 6.38723 19.4941C6.29073 19.4941 6.19422 19.4941 6.09772 19.5C5.74187 19.5352 5.46443 19.8223 5.45237 20.1738C5.4403 20.625 5.75393 20.918 6.27263 20.918C7.94332 20.918 9.61401 20.918 11.2847 20.918Z" fill="white"/>
<path d="M2.7684 21.5156C2.03257 21.5156 1.3269 21.5273 0.62123 21.5098C0.301568 21.5039 0.0482509 21.2227 0.0120627 20.9121C0 20.8184 0 20.7246 0 20.6309C0 14.0508 0 7.47656 0 0.896484C0 0.650391 0.0120627 0.410156 0.205066 0.222656C0.379976 0.0527344 0.597105 0 0.844391 0C2.77443 0.00585937 4.70446 0 6.6345 0C9.86128 0 13.082 0 16.3088 0C16.9602 0 17.2256 0.257812 17.2316 0.896484C17.2316 1.41211 17.2316 1.92187 17.2316 2.47266C17.111 2.47266 17.0084 2.47266 16.9059 2.47266C12.5211 2.47266 8.14234 2.48437 3.75754 2.4668C2.97346 2.46094 2.7684 2.87695 2.7684 3.42187C2.77443 9.35156 2.7684 15.2812 2.7684 21.2109C2.7684 21.3047 2.7684 21.3984 2.7684 21.5156Z" fill="white"/>
<path d="M13.0218 11.7246C12.859 12.8027 11.5381 13.7637 10.2956 13.7227C8.87827 13.6758 7.68406 12.5977 7.58153 11.2734C7.47899 9.9375 8.3837 8.6543 9.62013 8.41992C9.62013 8.6543 9.62013 8.88867 9.62013 9.12305C9.62013 9.71485 9.61409 10.3066 9.62013 10.9043C9.62616 11.4492 9.90963 11.7246 10.4705 11.7246C11.2365 11.7246 11.9965 11.7246 12.7625 11.7246C12.8469 11.7246 12.9374 11.7246 13.0218 11.7246Z" fill="white"/>
<path d="M15.0602 8.29688C14.4209 8.29688 13.7936 8.29688 13.1543 8.29688C13.1543 7.67579 13.1543 7.06641 13.1543 6.45117C13.9142 6.52148 14.9155 7.44727 15.0602 8.29688Z" fill="white"/>
</g>
<defs>
<clipPath id="clip0_424_1153">
<rect width="20" height="24" fill="white"/>
</clipPath>
</defs>
</svg>
