<svg width="22" height="23" viewBox="0 0 22 23" fill="none" xmlns="http://www.w3.org/2000/svg">
<g clip-path="url(#clip0_424_440)">
<path d="M16.7578 22.2086C16.3174 22.0958 15.8608 22.0207 15.4365 21.8649C13.3847 21.1129 12.0796 18.8571 12.4287 16.6979C12.7563 14.6623 14.2817 13.0509 16.2368 12.675C18.8042 12.1808 21.2373 13.7438 21.8657 16.2951C21.9194 16.5153 21.957 16.7409 22 16.9665C22 17.2511 22 17.5412 22 17.8258C21.9839 17.8957 21.9677 17.9655 21.957 18.0353C21.6455 19.9152 20.6089 21.215 18.8364 21.9025C18.4497 22.0529 18.0254 22.1066 17.6172 22.2086C17.3325 22.2086 17.0425 22.2086 16.7578 22.2086ZM17.875 16.7086C17.875 16.6066 17.875 16.5314 17.875 16.4562C17.875 15.8546 17.8803 15.2531 17.875 14.6515C17.8696 14.2594 17.5742 13.964 17.1982 13.9586C16.8169 13.9533 16.5053 14.2487 16.5053 14.6515C16.5 15.57 16.5 16.4831 16.5053 17.4015C16.5107 17.7829 16.79 18.0729 17.1714 18.0783C18.1006 18.089 19.0298 18.089 19.9643 18.0783C20.2651 18.0729 20.48 17.9118 20.5874 17.6325C20.7593 17.1813 20.4316 16.7194 19.9321 16.714C19.2553 16.7033 18.5786 16.7086 17.875 16.7086Z" fill="white"/>
<path d="M13.2559 12.573C10.7637 14.9685 10.3125 17.7131 11.9937 20.8176C11.9561 20.823 11.897 20.8283 11.8379 20.8283C8.15869 20.8283 4.47949 20.8283 0.794922 20.8283C0.268555 20.8337 0 20.5652 0 20.0442C0 14.6086 0 9.17307 0 3.73752C0 2.7009 0.574707 1.93821 1.55762 1.65891C1.76172 1.59983 1.98193 1.58909 2.19141 1.58372C2.59961 1.57297 3.00244 1.57835 3.4375 1.57835C3.4375 1.35813 3.4375 1.15403 3.4375 0.944556C3.44287 0.514869 3.73291 0.208717 4.13037 0.208717C4.52783 0.208717 4.80713 0.52024 4.8125 0.96067C4.8125 1.1594 4.8125 1.35813 4.8125 1.5676C5.73096 1.5676 6.62793 1.5676 7.5625 1.5676C7.5625 1.34202 7.55713 1.11106 7.5625 0.874732C7.57324 0.557838 7.77197 0.316138 8.06738 0.230201C8.34131 0.149635 8.65283 0.251685 8.79785 0.498756C8.87305 0.622291 8.8999 0.778053 8.92676 0.923072C8.94824 1.02512 8.93213 1.13792 8.93213 1.24534C8.93213 1.34739 8.93213 1.44407 8.93213 1.56223C9.84521 1.56223 10.7476 1.56223 11.6821 1.56223C11.6821 1.3635 11.6821 1.1594 11.6821 0.955299C11.6929 0.514869 11.9722 0.208717 12.375 0.208717C12.7725 0.208717 13.0571 0.514869 13.0625 0.955299C13.0625 1.15403 13.0625 1.35276 13.0625 1.5676C13.981 1.5676 14.8833 1.5676 15.8125 1.5676C15.8125 1.35813 15.8125 1.15403 15.8125 0.949928C15.8179 0.514869 16.1079 0.203345 16.5054 0.208717C16.8975 0.214088 17.1821 0.514869 17.1875 0.939185C17.1929 1.14329 17.1875 1.35276 17.1875 1.58372C17.6333 1.58372 18.0576 1.58372 18.4873 1.58372C18.9653 1.58909 19.4058 1.70725 19.7925 1.99729C20.335 2.41087 20.6196 2.96946 20.6196 3.64085C20.6304 6.48215 20.625 9.32346 20.625 12.1701C20.625 12.1863 20.6196 12.197 20.6143 12.2239C18.2939 10.8327 15.979 10.8703 13.6479 12.2937C13.6748 12.2077 13.6963 12.1594 13.7124 12.1057C13.8467 11.676 13.562 11.2302 13.1162 11.2141C12.6221 11.1926 12.1279 11.198 11.6338 11.2141C11.2793 11.2248 11.0107 11.531 11.0054 11.8801C11 12.2185 11.2471 12.5515 11.5908 12.5622C12.1548 12.5945 12.7295 12.573 13.2559 12.573ZM3.4375 2.98557C3.3999 2.96946 3.38916 2.96409 3.37305 2.96409C2.95947 2.96409 2.54053 2.95872 2.12695 2.95872C1.65967 2.95872 1.375 3.23801 1.375 3.7053C1.36963 4.26389 1.375 4.82249 1.375 5.38108C1.375 5.48313 1.375 5.59055 1.375 5.6926C7.34766 5.6926 13.2935 5.6926 19.25 5.6926C19.25 4.98899 19.2554 4.30149 19.2446 3.61399C19.2393 3.28098 18.9868 2.99094 18.6646 2.96946C18.1812 2.9426 17.6978 2.96409 17.1875 2.96409C17.1875 3.18967 17.1929 3.40452 17.1875 3.61399C17.1821 4.02219 16.8921 4.32297 16.5107 4.32835C16.1187 4.33372 15.8232 4.03294 15.8125 3.61399C15.8071 3.39915 15.8125 3.18967 15.8125 2.96946C14.8887 2.96946 13.981 2.96946 13.0625 2.96946C13.0625 3.1843 13.0625 3.38303 13.0625 3.58176C13.0571 4.02219 12.7778 4.32835 12.3804 4.33372C11.9829 4.33372 11.6982 4.02756 11.6929 3.58713C11.6929 3.38303 11.6929 3.17893 11.6929 2.97483C10.7583 2.97483 9.85596 2.97483 8.94287 2.97483C8.94287 3.17893 8.94287 3.36155 8.94287 3.54954C8.94287 4.02219 8.66357 4.33909 8.25 4.33372C7.84717 4.32835 7.57324 4.02219 7.56787 3.56028C7.56787 3.36155 7.56787 3.16819 7.56787 2.97483C6.6333 2.97483 5.73633 2.97483 4.81787 2.97483C4.81787 3.20042 4.82324 3.41526 4.81787 3.62473C4.80713 4.03294 4.52246 4.33372 4.13574 4.33372C3.74365 4.33909 3.44824 4.03294 3.44287 3.61399C3.43213 3.40452 3.4375 3.19504 3.4375 2.98557ZM4.125 8.45872C3.90479 8.45872 3.6792 8.45335 3.45898 8.45872C3.05078 8.46946 2.75537 8.7595 2.75537 9.14085C2.75537 9.52219 3.05078 9.82298 3.45361 9.82835C3.90479 9.83372 4.35596 9.83372 4.80713 9.82835C5.20996 9.82298 5.50537 9.51682 5.5 9.13547C5.49463 8.7595 5.20459 8.46946 4.8125 8.45872C4.58154 8.45335 4.35059 8.45872 4.125 8.45872ZM8.25 9.83372C8.47021 9.83372 8.6958 9.83909 8.91602 9.83372C9.32422 9.82297 9.61963 9.53294 9.625 9.15159C9.63037 8.77024 9.32959 8.46946 8.92676 8.45872C8.47559 8.45335 8.02441 8.45335 7.57324 8.45872C7.17041 8.46409 6.875 8.76487 6.875 9.15159C6.88037 9.53294 7.17578 9.82297 7.58398 9.83372C7.8042 9.83372 8.02979 9.83372 8.25 9.83372ZM12.3696 9.82835C12.606 9.82835 12.8423 9.83372 13.0786 9.82835C13.4546 9.81223 13.7446 9.51682 13.75 9.15159C13.7554 8.77561 13.4653 8.46946 13.0786 8.45872C12.6113 8.44798 12.1494 8.44798 11.6821 8.45872C11.2954 8.46409 11 8.77024 11 9.14622C11 9.52219 11.2954 9.8176 11.6821 9.82835C11.9131 9.83909 12.144 9.83372 12.3696 9.82835ZM16.5 8.45872C16.269 8.45872 16.0435 8.45335 15.8125 8.45872C15.4204 8.46946 15.1304 8.76487 15.125 9.14085C15.1196 9.51682 15.415 9.82298 15.8018 9.82835C16.269 9.83909 16.731 9.83909 17.1982 9.82835C17.585 9.8176 17.875 9.51145 17.875 9.14085C17.8696 8.76487 17.5796 8.47483 17.1875 8.45872C16.9565 8.45335 16.731 8.45872 16.5 8.45872ZM4.125 11.2087C3.90479 11.2087 3.6792 11.2033 3.45898 11.2087C3.05078 11.2195 2.75537 11.5095 2.75 11.8908C2.75 12.2722 3.04541 12.573 3.44824 12.5783C3.89941 12.5837 4.35059 12.5837 4.80176 12.5783C5.20459 12.573 5.5 12.2668 5.5 11.8855C5.49463 11.5095 5.20459 11.2195 4.8125 11.2087C4.58154 11.2033 4.35059 11.2087 4.125 11.2087ZM8.25537 11.2087C8.01904 11.2087 7.78271 11.2033 7.54639 11.2087C7.17041 11.2248 6.88037 11.5149 6.875 11.8801C6.86963 12.2561 7.15967 12.5676 7.54639 12.573C8.01367 12.5837 8.47559 12.5837 8.94287 12.573C9.33496 12.5676 9.625 12.2615 9.625 11.8908C9.625 11.5149 9.33496 11.2195 8.94287 11.2033C8.71191 11.2033 8.48633 11.2087 8.25537 11.2087ZM4.125 13.9587C3.89404 13.9587 3.66846 13.9533 3.4375 13.9587C3.04541 13.9695 2.75537 14.2649 2.75 14.6355C2.74463 15.0115 3.03467 15.3176 3.42676 15.3283C3.89404 15.3391 4.35596 15.3391 4.82324 15.3283C5.20996 15.323 5.50537 15.0168 5.5 14.6408C5.5 14.2649 5.20459 13.9695 4.8125 13.9587C4.58691 13.9533 4.35596 13.9587 4.125 13.9587ZM8.24463 15.3283C8.48096 15.3283 8.71729 15.3337 8.95361 15.3283C9.32959 15.3122 9.61963 15.0168 9.625 14.6516C9.63037 14.2756 9.34033 13.9695 8.95361 13.9587C8.48633 13.948 8.02441 13.948 7.55713 13.9587C7.17041 13.9641 6.875 14.2702 6.875 14.6462C6.875 15.0222 7.17041 15.3176 7.55713 15.3283C7.78809 15.3391 8.01904 15.3337 8.24463 15.3283ZM4.13037 18.0837C4.36133 18.0837 4.58691 18.0891 4.81787 18.0837C5.20996 18.073 5.5 17.7722 5.5 17.3962C5.5 17.0202 5.20996 16.7195 4.81787 16.7141C4.36133 16.7033 3.90479 16.7033 3.44287 16.7141C3.05078 16.7195 2.75537 17.0149 2.75 17.3908C2.74463 17.7722 3.04004 18.0783 3.44287 18.0891C3.67383 18.0891 3.89941 18.0837 4.13037 18.0837ZM8.25 16.7087C8.02979 16.7087 7.8042 16.7033 7.58398 16.7087C7.17578 16.7195 6.88037 17.0095 6.88037 17.3908C6.88037 17.7722 7.17578 18.073 7.57861 18.0783C8.02979 18.0837 8.48096 18.0837 8.93213 18.0783C9.33496 18.073 9.63037 17.7668 9.625 17.3855C9.61963 17.0095 9.32959 16.7195 8.9375 16.7087C8.70654 16.7033 8.47559 16.7087 8.25 16.7087Z" fill="white"/>
</g>
<defs>
<clipPath id="clip0_424_440">
<rect width="22" height="22" fill="white" transform="translate(0 0.208496)"/>
</clipPath>
</defs>
</svg>
