<svg width="19" height="19" viewBox="0 0 19 19" fill="none" xmlns="http://www.w3.org/2000/svg">
<path d="M15.6426 1.32422C16.2181 1.01432 16.7826 1.04753 17.3359 1.42383C17.8893 1.77799 18.1217 2.28711 18.0332 2.95117L16.041 15.834C15.9525 16.3431 15.6868 16.7194 15.2441 16.9629C15.0007 17.0957 14.7461 17.1621 14.4805 17.1621C14.2591 17.1621 14.0488 17.1289 13.8496 17.0625L10.1309 15.5352L8.70312 17.4941C8.39323 17.8704 8.00586 18.0807 7.54102 18.125C7.09831 18.1693 6.69987 18.0365 6.3457 17.7266C5.99154 17.4167 5.81445 17.0182 5.81445 16.5312V13.7422L2.0293 12.1484C1.40951 11.9049 1.07747 11.4512 1.0332 10.7871C0.988932 10.123 1.25456 9.625 1.83008 9.29297L15.6426 1.32422ZM7.4082 16.5312L8.63672 14.8711L7.4082 14.373V16.5312ZM14.4805 15.5684L16.4395 2.71875L2.62695 10.6875L6.21289 12.1816L13.2188 6.03906C13.4622 5.83984 13.6947 5.85091 13.916 6.07227C14.1595 6.27148 14.1927 6.50391 14.0156 6.76953L9.36719 13.4766L14.4805 15.5684Z" fill="#177BEA"/>
</svg>
