<svg width="22" height="24" viewBox="0 0 22 24" fill="none" xmlns="http://www.w3.org/2000/svg">
<g clip-path="url(#clip0_424_1356)">
<path d="M13.1605 6.33984C12.5738 6.33984 12.3088 6.08828 12.3088 5.53125V0.5H2.76938C1.11638 0.5 0.0059697 1.54818 0.0059697 3.11146C0.0059697 9.04115 0.018588 14.9708 -0.000339452 20.9005C-0.0066486 22.362 1.10376 23.3383 2.22048 23.4701C2.23941 23.4701 2.25834 23.494 2.28357 23.5H16.1952C16.3151 23.4701 16.435 23.4401 16.5549 23.4102C16.8514 23.3323 17.129 23.2065 17.3687 23.0388C17.2552 23.0029 17.1479 22.9549 17.0407 22.907C16.9965 22.8891 16.965 22.8891 16.9208 22.919C16.7631 23.0388 16.6116 23.1526 16.4539 23.2664C16.2016 23.4461 15.924 23.4281 15.7031 23.2245C15.5202 23.0568 15.3435 22.8831 15.1605 22.7094C14.9397 22.4997 14.9271 22.2362 15.1164 21.9966C15.2363 21.8469 15.3624 21.6971 15.4823 21.5414C15.5012 21.5174 15.5075 21.4755 15.4949 21.4516C15.4445 21.3258 15.394 21.2 15.3309 21.0802C15.3183 21.0562 15.2804 21.0263 15.2489 21.0203C15.0533 20.9904 14.864 20.9724 14.6684 20.9484C14.517 20.9305 14.3782 20.8826 14.2836 20.7628C14.2268 20.6909 14.1952 20.5951 14.1511 20.5172V19.5648C14.1574 19.5529 14.1637 19.5469 14.17 19.5409C14.2394 19.3133 14.4034 19.1875 14.6495 19.1516C14.8451 19.1276 15.0344 19.1036 15.2299 19.0857C15.293 19.0797 15.3246 19.0557 15.3435 19.0018C15.3877 18.888 15.4381 18.7742 15.4949 18.6604C15.5139 18.6185 15.5139 18.5885 15.4823 18.5526C15.3561 18.4029 15.2363 18.2531 15.1101 18.1034C14.9208 17.8698 14.9397 17.6063 15.1542 17.3966C15.3309 17.2229 15.5139 17.0552 15.6905 16.8815C15.9113 16.6719 16.1952 16.6539 16.4413 16.8336C16.599 16.9474 16.7568 17.0672 16.9145 17.187C16.9523 17.2169 16.9839 17.2169 17.0281 17.199C17.1479 17.1451 17.2741 17.0971 17.394 17.0552C17.4445 17.0372 17.4697 17.0073 17.476 16.9594C17.4949 16.7737 17.5202 16.594 17.5454 16.4083C17.5833 16.1148 17.8041 15.9352 18.1195 15.9292C18.2268 15.9292 18.334 15.9292 18.4476 15.9292H18.4539V6.34583H13.1605V6.33984ZM14.6747 12.3893H14.6369C14.6369 13.1799 14.7189 13.9826 14.6243 14.7672C14.2583 17.7021 12.5738 19.6727 9.66528 20.7148C9.38767 20.8167 9.129 20.8167 8.83878 20.7268C6.12584 19.9003 4.05644 17.4924 3.84824 14.8031C3.75991 13.701 3.81039 12.587 3.79777 11.4849C3.79146 11.0896 3.79146 10.6943 3.79777 10.293C3.80408 9.86771 4.08799 9.59818 4.53594 9.58021C5.49493 9.54427 6.20786 9.11901 6.62427 8.30443C6.81985 7.92708 7.09745 7.77135 7.53909 7.77734C8.68736 7.79531 9.84193 7.78932 10.9902 7.77734C11.3814 7.77135 11.6463 7.9151 11.8167 8.25651C12.252 9.10703 12.9713 9.55026 13.9744 9.58021C14.3908 9.59219 14.6684 9.87969 14.6747 10.281C14.6811 10.9818 14.6747 11.6826 14.6747 12.3893Z" fill="white"/>
<path d="M17.9371 4.98636C16.5806 4.98636 15.1737 4.98636 13.7478 4.98636C13.7478 3.6387 13.7478 2.30303 13.7478 1.00928C15.1295 2.321 16.5364 3.65667 17.9371 4.98636Z" fill="white"/>
<path d="M13.2999 12.7487C13.2557 13.5333 13.2936 14.3299 13.1485 15.0966C12.751 17.181 11.4576 18.6005 9.37559 19.3732C9.29357 19.4031 9.17369 19.4031 9.08536 19.3672C7.01596 18.5945 5.75413 17.175 5.31249 15.1086C5.23678 14.7372 5.21786 14.3479 5.21786 13.9706C5.20524 13.0003 5.21786 12.024 5.21155 11.0536C5.21155 10.9099 5.2494 10.856 5.40713 10.8201C6.37243 10.5924 7.13584 10.0773 7.67212 9.28073C7.74783 9.16693 7.83615 9.125 7.97495 9.125C8.80776 9.13099 9.64688 9.13099 10.4797 9.125C10.6311 9.125 10.7194 9.16094 10.8015 9.28672C11.344 10.0833 12.1074 10.5924 13.0727 10.8201C13.2179 10.856 13.262 10.9039 13.262 11.0417C13.2557 11.6107 13.2557 12.1797 13.2557 12.7487C13.2683 12.7427 13.2873 12.7487 13.2999 12.7487ZM8.57432 14.6354C8.27148 14.3419 8.01912 14.0904 7.75413 13.8448C7.43868 13.5513 7.00966 13.5453 6.71943 13.8208C6.44183 14.0844 6.45445 14.5036 6.74467 14.7852C7.16738 15.1984 7.60272 15.6057 8.03174 16.007C8.3535 16.3065 8.7636 16.3125 9.08536 16.013C9.96234 15.1865 10.8393 14.3539 11.71 13.5213C12.0191 13.2279 12.0191 12.8086 11.7352 12.5391C11.4513 12.2695 11.016 12.2815 10.7005 12.581C10.139 13.1081 9.58379 13.6352 9.02858 14.1682C8.88347 14.312 8.74467 14.4617 8.57432 14.6354Z" fill="white"/>
<path d="M22.0001 19.7384C22.0001 19.5348 21.855 19.3671 21.6405 19.3371C21.4764 19.3132 21.3061 19.2952 21.142 19.2772C21.0916 19.2713 21.0663 19.2593 21.0474 19.2114C21.0159 19.1155 20.9717 19.0257 20.9275 18.9358C20.9086 18.8999 20.9149 18.8759 20.9401 18.846C21.0348 18.7322 21.1357 18.6124 21.2304 18.4926C21.3881 18.3009 21.3755 18.0853 21.1925 17.9176C21.0474 17.7798 20.9023 17.6421 20.7572 17.5043C20.5805 17.3366 20.3534 17.3246 20.1515 17.4684C20.0253 17.5582 19.8991 17.6541 19.773 17.7499C19.7414 17.7739 19.7162 17.7739 19.6846 17.7619C19.5837 17.72 19.4827 17.678 19.3818 17.6421C19.3376 17.6301 19.325 17.6062 19.325 17.5702C19.3061 17.4085 19.2872 17.2468 19.2556 17.0851C19.2178 16.8814 19.0474 16.7496 18.8266 16.7437C18.7067 16.7437 18.5805 16.7437 18.4607 16.7437C18.3723 16.7437 18.284 16.7437 18.1957 16.7437C17.9433 16.7437 17.7667 16.8874 17.7351 17.127C17.7162 17.2767 17.6973 17.4205 17.6783 17.5702C17.672 17.6121 17.6531 17.6361 17.6152 17.6481C17.5143 17.684 17.4133 17.72 17.3187 17.7619C17.2809 17.7799 17.2619 17.7799 17.2304 17.7559C17.1042 17.6601 16.978 17.5642 16.8455 17.4744C16.6436 17.3306 16.4228 17.3426 16.2398 17.5163C16.0947 17.6541 15.9496 17.7918 15.8045 17.9296C15.6342 18.0973 15.6152 18.3129 15.7667 18.4986C15.8613 18.6184 15.9622 18.7442 16.0632 18.864C16.0884 18.8939 16.0884 18.9179 16.0695 18.9478C16.0253 19.0377 15.9875 19.1275 15.9496 19.2233C15.9307 19.2713 15.9118 19.2892 15.8613 19.2892C15.7036 19.3072 15.5522 19.3252 15.3944 19.3431C15.1988 19.3671 15.0663 19.4749 15.0096 19.6546C15.0096 19.6606 15.0033 19.6666 14.9969 19.6785V20.4452C15.0285 20.5111 15.06 20.583 15.1042 20.6429C15.1799 20.7387 15.2872 20.7806 15.4134 20.7926C15.5711 20.8106 15.7225 20.8285 15.8802 20.8525C15.9055 20.8585 15.937 20.8825 15.9433 20.9004C15.9938 20.9963 16.0316 21.0981 16.0758 21.1999C16.0821 21.2179 16.0821 21.2538 16.0632 21.2718C15.9686 21.3976 15.8676 21.5174 15.7667 21.6371C15.6152 21.8288 15.6279 22.0384 15.8045 22.2121C15.9496 22.3499 16.0947 22.4877 16.2398 22.6254C16.4165 22.7931 16.6436 22.8051 16.8455 22.6614C16.9717 22.5715 17.0979 22.4757 17.2241 22.3858C17.2556 22.3619 17.2809 22.3619 17.3187 22.3799C17.4133 22.4218 17.508 22.4577 17.6089 22.4937C17.6531 22.5116 17.672 22.5296 17.6783 22.5775C17.6846 22.6254 17.6909 22.6733 17.6973 22.7272C17.7099 22.8291 17.7225 22.9309 17.7414 23.0387C17.773 23.2244 17.8865 23.3442 18.0821 23.3921C18.0884 23.3921 18.101 23.3981 18.1073 23.4041H18.9023C19.0159 23.3741 19.1168 23.3262 19.1862 23.2304C19.2556 23.1345 19.2682 23.0267 19.2808 22.9189C19.2998 22.8051 19.3124 22.6853 19.325 22.5715C19.3313 22.5356 19.3502 22.5176 19.3881 22.5056C19.489 22.4697 19.59 22.4278 19.6909 22.3858C19.7288 22.3679 19.754 22.3739 19.7793 22.3978C19.9054 22.4937 20.0316 22.5835 20.1578 22.6733C20.3597 22.8171 20.5805 22.8051 20.7635 22.6374C20.9086 22.4996 21.0537 22.3679 21.1925 22.2301C21.3755 22.0564 21.3881 21.8408 21.2304 21.6491C21.1357 21.5293 21.0411 21.4155 20.9401 21.2957C20.9149 21.2658 20.9149 21.2418 20.9275 21.2059C20.9717 21.116 21.0095 21.0262 21.0474 20.9364C21.0663 20.8884 21.0916 20.8705 21.142 20.8645C21.3061 20.8465 21.4764 20.8285 21.6405 20.8046C21.855 20.7687 22.0001 20.6069 22.0001 20.3973C22.0001 20.1517 22.0001 19.9481 22.0001 19.7384ZM20.2461 20.0978C20.2083 21.0202 19.3944 21.745 18.4543 21.709C17.4764 21.6671 16.7193 20.9004 16.7635 20.002C16.8077 19.0796 17.6152 18.3608 18.5553 18.4028C19.5269 18.4387 20.284 19.1994 20.2461 20.0978Z" fill="white"/>
</g>
<defs>
<clipPath id="clip0_424_1356">
<rect width="22" height="23" fill="white" transform="translate(0 0.5)"/>
</clipPath>
</defs>
</svg>
