<svg width="24" height="23" viewBox="0 0 24 23" fill="none" xmlns="http://www.w3.org/2000/svg">
<path d="M4.09375 3.51367C6.27995 1.32747 8.91536 0.234375 12 0.234375C15.0846 0.234375 17.7051 1.32747 19.8613 3.51367C22.0475 5.66992 23.1406 8.29036 23.1406 11.375C23.1406 14.4596 22.0475 17.0951 19.8613 19.2812C17.7051 21.4375 15.0846 22.5156 12 22.5156C8.91536 22.5156 6.27995 21.4375 4.09375 19.2812C1.9375 17.0951 0.859375 14.4596 0.859375 11.375C0.859375 8.29036 1.9375 5.66992 4.09375 3.51367ZM14.5605 15.957C14.86 16.1667 15.1146 16.1367 15.3242 15.8672L16.582 14.1152C16.7917 13.8158 16.7617 13.5612 16.4922 13.3516L13.6172 11.2852V5.08594C13.6172 4.72656 13.4375 4.54688 13.0781 4.54688H10.9219C10.5625 4.54688 10.3828 4.72656 10.3828 5.08594V12.6328C10.3828 12.8125 10.4577 12.9622 10.6074 13.082L14.5605 15.957Z" fill="white"/>
</svg>
