<svg width="18" height="19" viewBox="0 0 18 19" fill="none" xmlns="http://www.w3.org/2000/svg">
<path d="M10.4229 2.11719L9.52444 1.25781C9.34215 1.07552 9.1208 0.984375 8.86038 0.984375C8.59997 0.984375 8.37861 1.07552 8.19632 1.25781L0.618195 8.83594C0.435903 9.01823 0.344757 9.23958 0.344757 9.5C0.344757 9.76042 0.435903 9.98177 0.618195 10.1641L8.19632 17.7422C8.37861 17.9245 8.59997 18.0156 8.86038 18.0156C9.1208 18.0156 9.34215 17.9245 9.52444 17.7422L10.4229 16.8828C10.6052 16.7005 10.6963 16.4792 10.6963 16.2188C10.6703 15.9583 10.5661 15.737 10.3838 15.5547L5.69632 11.0625H16.9073C17.1677 11.0625 17.389 10.9714 17.5713 10.7891C17.7536 10.6068 17.8448 10.3854 17.8448 10.125V8.875C17.8448 8.61458 17.7536 8.39323 17.5713 8.21094C17.389 8.02865 17.1677 7.9375 16.9073 7.9375H5.69632L10.3838 3.44531C10.5661 3.26302 10.6703 3.04167 10.6963 2.78125C10.6963 2.52083 10.6052 2.29948 10.4229 2.11719Z" fill="#999999"/>
</svg>
