<svg width="18" height="18" viewBox="0 0 18 18" fill="none" xmlns="http://www.w3.org/2000/svg">
<path d="M7.46756 1.61719L8.366 0.757812C8.54829 0.575521 8.76964 0.484375 9.03006 0.484375C9.29048 0.484375 9.51183 0.575521 9.69412 0.757812L17.2722 8.33594C17.4545 8.51823 17.5457 8.73958 17.5457 9C17.5457 9.26042 17.4545 9.48177 17.2722 9.66406L9.69412 17.2422C9.51183 17.4245 9.29048 17.5156 9.03006 17.5156C8.76964 17.5156 8.54829 17.4245 8.366 17.2422L7.46756 16.3828C7.28527 16.2005 7.19412 15.9792 7.19412 15.7188C7.22016 15.4583 7.32433 15.237 7.50662 15.0547L12.1941 10.5625H0.983185C0.722768 10.5625 0.501414 10.4714 0.319122 10.2891C0.136831 10.1068 0.0456848 9.88542 0.0456848 9.625V8.375C0.0456848 8.11458 0.136831 7.89323 0.319122 7.71094C0.501414 7.52865 0.722768 7.4375 0.983185 7.4375H12.1941L7.50662 2.94531C7.32433 2.76302 7.22016 2.54167 7.19412 2.28125C7.19412 2.02083 7.28527 1.79948 7.46756 1.61719Z" fill="#999999"/>
</svg>
