<svg width="18" height="19" viewBox="0 0 18 19" fill="none" xmlns="http://www.w3.org/2000/svg">
<path d="M10.1172 16.8848L9.21875 17.7441C9.03646 17.9264 8.8151 18.0176 8.55469 18.0176C8.29427 18.0176 8.07292 17.9264 7.89062 17.7441L0.3125 10.166C0.130208 9.98372 0.0390625 9.76237 0.0390625 9.50195C0.0390625 9.24154 0.130208 9.02018 0.3125 8.83789L7.89062 1.25977C8.07292 1.07747 8.29427 0.986328 8.55469 0.986328C8.8151 0.986328 9.03646 1.07747 9.21875 1.25977L10.1172 2.11914C10.2995 2.30143 10.3776 2.52279 10.3516 2.7832C10.3516 3.04362 10.2604 3.26497 10.0781 3.44727L5.39062 7.93945H16.6016C16.862 7.93945 17.0833 8.0306 17.2656 8.21289C17.4479 8.39518 17.5391 8.61654 17.5391 8.87695V10.127C17.5391 10.3874 17.4479 10.6087 17.2656 10.791C17.0833 10.9733 16.862 11.0645 16.6016 11.0645H5.39062L10.0781 15.5566C10.2604 15.7389 10.3516 15.9603 10.3516 16.2207C10.3776 16.4811 10.2995 16.7025 10.1172 16.8848Z" fill="url(#paint0_linear_561_3750)"/>
<defs>
<linearGradient id="paint0_linear_561_3750" x1="2.44539" y1="1.50805" x2="18.5118" y2="13.9705" gradientUnits="userSpaceOnUse">
<stop stop-color="#657093"/>
<stop offset="1" stop-color="#253053"/>
</linearGradient>
</defs>
</svg>
