<svg width="11" height="16" viewBox="0 0 11 16" fill="none" xmlns="http://www.w3.org/2000/svg">
<path d="M1 6.75L7.375 0.375C7.59375 0.15625 7.85938 0.046875 8.17188 0.046875C8.48438 0.046875 8.75 0.15625 8.96875 0.375L10 1.45313C10.2188 1.67188 10.3281 1.9375 10.3281 2.25C10.3281 2.5625 10.2188 2.82813 10 3.04688L5.5 7.54688L10 12.0469C10.2188 12.2656 10.3281 12.5312 10.3281 12.8438C10.3281 13.1562 10.2188 13.4219 10 13.6406L8.96875 14.7188C8.75 14.9375 8.48438 15.0469 8.17188 15.0469C7.85938 15.0469 7.59375 14.9375 7.375 14.7188L1 8.34375C0.78125 8.125 0.671875 7.85938 0.671875 7.54688C0.671875 7.23438 0.78125 6.96875 1 6.75Z" fill="#00B2FE"/>
</svg>
