<svg width="20" height="21" viewBox="0 0 20 21" fill="none" xmlns="http://www.w3.org/2000/svg">
<path d="M3.02075 3.66602C4.92179 1.76497 7.21346 0.814453 9.89575 0.814453C12.578 0.814453 14.8567 1.76497 16.7317 3.66602C18.6327 5.54102 19.5833 7.81966 19.5833 10.502C19.5833 13.1842 18.6327 15.4759 16.7317 17.377C14.8567 19.252 12.578 20.1895 9.89575 20.1895C7.21346 20.1895 4.92179 19.252 3.02075 17.377C1.14575 15.4759 0.208252 13.1842 0.208252 10.502C0.208252 7.81966 1.14575 5.54102 3.02075 3.66602ZM4.34888 16.0488C5.88534 17.5592 7.73429 18.3145 9.89575 18.3145C12.0572 18.3145 13.8931 17.5592 15.4036 16.0488C16.94 14.5124 17.7083 12.6634 17.7083 10.502C17.7083 8.34049 16.94 6.50456 15.4036 4.99414C13.8931 3.45768 12.0572 2.68945 9.89575 2.68945C7.73429 2.68945 5.88534 3.45768 4.34888 4.99414C2.83846 6.50456 2.08325 8.34049 2.08325 10.502C2.08325 12.6634 2.83846 14.5124 4.34888 16.0488ZM13.8801 8.08008L11.4583 10.502L13.8801 12.9238C14.0885 13.1582 14.0885 13.3796 13.8801 13.5879L12.9817 14.4863C12.7734 14.6947 12.552 14.6947 12.3176 14.4863L9.89575 12.0645L7.47388 14.4863C7.2395 14.6947 7.01815 14.6947 6.80981 14.4863L5.91138 13.5879C5.70304 13.3796 5.70304 13.1582 5.91138 12.9238L8.33325 10.502L5.91138 8.08008C5.70304 7.8457 5.70304 7.62435 5.91138 7.41602L6.80981 6.51758C7.01815 6.30924 7.2395 6.30924 7.47388 6.51758L9.89575 8.93945L12.3176 6.51758C12.552 6.30924 12.7734 6.30924 12.9817 6.51758L13.8801 7.41602C14.0885 7.62435 14.0885 7.8457 13.8801 8.08008Z" fill="url(#paint0_linear_207_152)"/>
<defs>
<linearGradient id="paint0_linear_207_152" x1="2.61285" y1="2.50805" x2="19.0188" y2="16.6478" gradientUnits="userSpaceOnUse">
<stop stop-color="#657093"/>
<stop offset="1" stop-color="#253053"/>
</linearGradient>
</defs>
</svg>
