<svg width="10" height="12" viewBox="0 0 10 12" fill="none" xmlns="http://www.w3.org/2000/svg">
<path d="M5.49414 5.3125C5.24023 5.54102 4.85938 5.54102 4.63086 5.3125L1.17773 1.85938C0.923828 1.60547 0.923828 1.22461 1.17773 0.996094L1.73633 0.412109C1.99023 0.183594 2.37109 0.183594 2.59961 0.412109L5.0625 2.875L7.5 0.412109C7.72852 0.183594 8.13477 0.183594 8.36328 0.412109L8.94727 0.996094C9.17578 1.22461 9.17578 1.60547 8.94727 1.85938L5.49414 5.3125Z" fill="url(#paint0_linear_2031_30)"/>
<path d="M5.49414 6.6875C5.24023 6.45898 4.85938 6.45898 4.63086 6.6875L1.17773 10.1406C0.923828 10.3945 0.923828 10.7754 1.17773 11.0039L1.73633 11.5879C1.99023 11.8164 2.37109 11.8164 2.59961 11.5879L5.0625 9.125L7.5 11.5879C7.72852 11.8164 8.13477 11.8164 8.36328 11.5879L8.94727 11.0039C9.17578 10.7754 9.17578 10.3945 8.94727 10.1406L5.49414 6.6875Z" fill="url(#paint1_linear_2031_30)"/>
<defs>
<linearGradient id="paint0_linear_2031_30" x1="1" y1="13.3068" x2="12.9809" y2="10.3369" gradientUnits="userSpaceOnUse">
<stop stop-color="#177BEA"/>
<stop offset="1" stop-color="#8829F6"/>
</linearGradient>
<linearGradient id="paint1_linear_2031_30" x1="1" y1="-0.893471" x2="12.7723" y2="2.44158" gradientUnits="userSpaceOnUse">
<stop stop-color="#177BEA"/>
<stop offset="1" stop-color="#8829F6"/>
</linearGradient>
</defs>
</svg>
