<svg width="6" height="20" viewBox="0 0 6 20" fill="none" xmlns="http://www.w3.org/2000/svg">
<path d="M0.848755 11.9922C1.39563 12.5391 2.05969 12.8125 2.84094 12.8125C3.62219 12.8125 4.28625 12.5391 4.83313 11.9922C5.38 11.4453 5.65344 10.7812 5.65344 10C5.65344 9.21875 5.38 8.55469 4.83313 8.00781C4.28625 7.46094 3.62219 7.1875 2.84094 7.1875C2.05969 7.1875 1.39563 7.46094 0.848755 8.00781C0.30188 8.55469 0.0284424 9.21875 0.0284424 10C0.0284424 10.7812 0.30188 11.4453 0.848755 11.9922ZM0.848755 14.8828C0.30188 15.4297 0.0284424 16.0938 0.0284424 16.875C0.0284424 17.6562 0.30188 18.3203 0.848755 18.8672C1.39563 19.4141 2.05969 19.6875 2.84094 19.6875C3.62219 19.6875 4.28625 19.4141 4.83313 18.8672C5.38 18.3203 5.65344 17.6562 5.65344 16.875C5.65344 16.0938 5.38 15.4297 4.83313 14.8828C4.28625 14.3359 3.62219 14.0625 2.84094 14.0625C2.05969 14.0625 1.39563 14.3359 0.848755 14.8828ZM0.848755 1.13281C0.30188 1.67969 0.0284424 2.34375 0.0284424 3.125C0.0284424 3.90625 0.30188 4.57031 0.848755 5.11719C1.39563 5.66406 2.05969 5.9375 2.84094 5.9375C3.62219 5.9375 4.28625 5.66406 4.83313 5.11719C5.38 4.57031 5.65344 3.90625 5.65344 3.125C5.65344 2.34375 5.38 1.67969 4.83313 1.13281C4.28625 0.585937 3.62219 0.3125 2.84094 0.3125C2.05969 0.3125 1.39563 0.585937 0.848755 1.13281Z" fill="url(#paint0_linear_788_92)"/>
<defs>
<linearGradient id="paint0_linear_788_92" x1="-17.734" y1="7.72115e-08" x2="-12.035" y2="27.747" gradientUnits="userSpaceOnUse">
<stop stop-color="#177BEA"/>
<stop offset="1" stop-color="#8829F6"/>
</linearGradient>
</defs>
</svg>
