<svg width="12" height="8" viewBox="0 0 12 8" fill="none" xmlns="http://www.w3.org/2000/svg">
<path d="M5.47705 7.625L0.695801 2.84375C0.531738 2.67969 0.449707 2.48047 0.449707 2.24609C0.449707 2.01172 0.531738 1.8125 0.695801 1.64844L1.50439 0.875C1.66846 0.710938 1.86768 0.628906 2.10205 0.628906C2.33643 0.628906 2.53564 0.710938 2.69971 0.875L6.07471 4.25L9.44971 0.875C9.61377 0.710938 9.81299 0.628906 10.0474 0.628906C10.2817 0.628906 10.481 0.710938 10.645 0.875L11.4536 1.64844C11.6177 1.8125 11.6997 2.01172 11.6997 2.24609C11.6997 2.48047 11.6177 2.67969 11.4536 2.84375L6.67236 7.625C6.5083 7.78906 6.30908 7.87109 6.07471 7.87109C5.84033 7.87109 5.64111 7.78906 5.47705 7.625Z" fill="white"/>
</svg>
