<svg width="21" height="20" viewBox="0 0 21 20" fill="none" xmlns="http://www.w3.org/2000/svg">
<path d="M13.7891 16.6406L10.7031 19.7266C10.5208 19.9089 10.2995 20 10.0391 20C9.77865 20 9.55729 19.9089 9.375 19.7266L6.28906 16.6406C6.0026 16.3281 5.9375 15.9896 6.09375 15.625C6.25 15.2344 6.53646 15.0391 6.95312 15.0391H8.94531V11.0938H5V13.0859C5 13.5026 4.80469 13.7891 4.41406 13.9453C4.04948 14.1016 3.71094 14.0365 3.39844 13.75L0.3125 10.6641C0.130208 10.4818 0.0390625 10.2604 0.0390625 10C0.0390625 9.73958 0.130208 9.51823 0.3125 9.33594L3.39844 6.25C3.71094 5.9375 4.04948 5.8724 4.41406 6.05469C4.80469 6.21094 5 6.4974 5 6.91406V8.90625H8.94531V4.96094H6.95312C6.53646 4.96094 6.23698 4.77865 6.05469 4.41406C5.89844 4.02344 5.97656 3.67188 6.28906 3.35938L9.375 0.273438C9.55729 0.0911458 9.77865 0 10.0391 0C10.2995 0 10.5208 0.0911458 10.7031 0.273438L13.7891 3.35938C14.0755 3.67188 14.1406 4.02344 13.9844 4.41406C13.8281 4.77865 13.5417 4.96094 13.125 4.96094H11.1328V8.90625H15.0781V6.91406C15.0781 6.4974 15.2604 6.21094 15.625 6.05469C16.0156 5.89844 16.3672 5.96354 16.6797 6.25L19.7656 9.33594C19.9479 9.51823 20.0391 9.73958 20.0391 10C20.0391 10.2604 19.9479 10.4818 19.7656 10.6641L16.6797 13.75C16.3672 14.0625 16.0156 14.1406 15.625 13.9844C15.2604 13.8021 15.0781 13.5026 15.0781 13.0859V11.0938H11.1328V15.0391H13.125C13.5417 15.0391 13.8281 15.2344 13.9844 15.625C14.1667 15.9896 14.1016 16.3281 13.7891 16.6406Z" fill="#999999"/>
</svg>
