<svg width="32" height="36" viewBox="0 0 32 36" fill="none" xmlns="http://www.w3.org/2000/svg">
<g clip-path="url(#clip0_1190_1586)">
<path fill-rule="evenodd" clip-rule="evenodd" d="M2.37611 7.24908L13.5248 0.705066C15.025 -0.175528 16.8837 -0.177876 18.3861 0.698926L29.6134 7.25101C31.0913 8.11349 32 9.69593 32 11.4071V23.9C32 25.617 31.0851 27.204 29.5991 28.0643L18.5392 34.4679C17.0598 35.3244 15.2371 35.3318 13.7509 34.4873L2.43483 28.0577C0.929766 27.2025 0 25.6049 0 23.8738V11.399C0 9.69219 0.904141 8.11309 2.37611 7.24908Z" fill="url(#paint0_linear_1190_1586)"/>
<g filter="url(#filter0_d_1190_1586)">
<path d="M12.3235 7.46835C12.3235 7.47601 12.584 7.87442 12.9019 8.35329C14.2159 10.3224 14.8748 11.5942 15.2694 12.9121C15.687 14.318 15.5299 15.4864 14.8404 16.1262C14.7063 16.2526 14.5301 16.3905 14.442 16.4365L14.2887 16.5246L14.2657 16.0726C14.2121 15.0535 13.8137 14.1303 13.1126 13.3871C12.6529 12.9044 12.2085 12.6247 11.4079 12.3068L10.8486 12.0846L10.8256 12.8393C10.7988 13.6706 10.7413 14.0192 10.5574 14.4866C10.4118 14.8543 10.3467 14.9654 9.7491 15.8695C9.2281 16.651 8.98292 17.1146 8.82202 17.6164C8.56152 18.4286 8.47724 19.3442 8.56918 20.2827C8.78754 22.4357 9.92532 24.4086 11.6607 25.6536C14.6412 27.7875 18.6828 27.4542 21.2686 24.8568C22.755 23.3628 23.548 21.3209 23.4599 19.2216C23.368 17.1376 22.6094 15.0842 21.1997 13.1228L20.8894 12.6899L20.4028 13.1764L19.9163 13.6629L19.8703 13.4944C19.7018 12.8393 19.5869 12.5098 19.3493 12.0424C18.5832 10.4986 17.0738 9.23056 14.9898 8.37627C14.5492 8.19622 12.3235 7.4377 12.3235 7.46835ZM15.4342 9.84351C16.9206 10.5905 18.0775 11.7819 18.5295 13.0347C18.8092 13.8008 18.8743 14.2605 18.8743 15.4711V16.3522L19.8091 15.4175L20.74 14.4866L20.8817 14.7088C21.0886 15.0344 21.5636 16.0228 21.7245 16.4518C22.1804 17.693 22.3911 19.0262 22.2915 20.0797C22.234 20.6888 22.1651 21.0221 21.9773 21.5852C21.4142 23.2785 20.1194 24.6921 18.4836 25.3931C16.162 26.3854 13.5034 25.9103 11.6837 24.1711C10.5344 23.0755 9.89084 21.7615 9.71462 20.1563C9.66099 19.6851 9.69164 18.9151 9.77592 18.4937C9.92149 17.785 10.1015 17.4095 10.7605 16.4212C11.4539 15.383 11.7105 14.8352 11.8638 14.0996C11.8867 13.9809 11.9174 13.8813 11.9251 13.8813C11.9365 13.8813 12.0055 13.9273 12.0783 13.9847C12.3043 14.1609 12.6606 14.6321 12.8177 14.9654C13.082 15.5094 13.0973 15.6167 13.1165 16.7813L13.1356 17.8271H13.5264C14.94 17.8271 16.1582 16.8464 16.526 15.4175C16.8707 14.0652 16.4838 12.3068 15.3844 10.2113C15.2388 9.93545 15.1277 9.7056 15.1392 9.7056C15.1507 9.7056 15.2848 9.76689 15.4342 9.84351Z" fill="white"/>
</g>
</g>
<defs>
<filter id="filter0_d_1190_1586" x="4.5332" y="5.46875" width="22.9336" height="27.5859" filterUnits="userSpaceOnUse" color-interpolation-filters="sRGB">
<feFlood flood-opacity="0" result="BackgroundImageFix"/>
<feColorMatrix in="SourceAlpha" type="matrix" values="0 0 0 0 0 0 0 0 0 0 0 0 0 0 0 0 0 0 127 0" result="hardAlpha"/>
<feOffset dy="2"/>
<feGaussianBlur stdDeviation="2"/>
<feComposite in2="hardAlpha" operator="out"/>
<feColorMatrix type="matrix" values="0 0 0 0 0 0 0 0 0 0 0 0 0 0 0 0 0 0 0.25 0"/>
<feBlend mode="normal" in2="BackgroundImageFix" result="effect1_dropShadow_1190_1586"/>
<feBlend mode="normal" in="SourceGraphic" in2="effect1_dropShadow_1190_1586" result="shape"/>
</filter>
<linearGradient id="paint0_linear_1190_1586" x1="1.20731e-07" y1="-14.4544" x2="43.46" y2="-5.71725" gradientUnits="userSpaceOnUse">
<stop stop-color="#FF645A"/>
<stop offset="1" stop-color="#CD0101"/>
</linearGradient>
<clipPath id="clip0_1190_1586">
<rect width="32" height="35.1278" fill="white"/>
</clipPath>
</defs>
</svg>
