<svg width="15" height="15" viewBox="0 0 15 15" fill="none" xmlns="http://www.w3.org/2000/svg">
<path d="M6.81592 0.75H9.00342C9.18571 0.75 9.34066 0.813802 9.46826 0.941406C9.59587 1.06901 9.65967 1.22396 9.65967 1.40625V6H12.0659C12.3029 6 12.467 6.11849 12.5581 6.35547C12.6493 6.57422 12.6128 6.76562 12.4487 6.92969L8.29248 11.0859C8.18311 11.1953 8.0555 11.25 7.90967 11.25C7.76383 11.25 7.63623 11.1953 7.52686 11.0859L3.37061 6.92969C3.20654 6.76562 3.17008 6.57422 3.26123 6.35547C3.35238 6.11849 3.51644 6 3.75342 6H6.15967V1.40625C6.15967 1.22396 6.22347 1.06901 6.35107 0.941406C6.47868 0.813802 6.63363 0.75 6.81592 0.75ZM14.9097 11.0312V14.0938C14.9097 14.276 14.8459 14.431 14.7183 14.5586C14.5907 14.6862 14.4357 14.75 14.2534 14.75H1.56592C1.38363 14.75 1.22868 14.6862 1.10107 14.5586C0.97347 14.431 0.909668 14.276 0.909668 14.0938V11.0312C0.909668 10.849 0.97347 10.694 1.10107 10.5664C1.22868 10.4388 1.38363 10.375 1.56592 10.375H5.58545L6.92529 11.7148C7.19873 11.9883 7.52686 12.125 7.90967 12.125C8.29248 12.125 8.62061 11.9883 8.89404 11.7148L10.2339 10.375H14.2534C14.4357 10.375 14.5907 10.4388 14.7183 10.5664C14.8459 10.694 14.9097 10.849 14.9097 11.0312ZM11.355 13.8203C11.4644 13.7109 11.519 13.5833 11.519 13.4375C11.519 13.2917 11.4644 13.1641 11.355 13.0547C11.2456 12.9453 11.118 12.8906 10.9722 12.8906C10.8263 12.8906 10.6987 12.9453 10.5894 13.0547C10.48 13.1641 10.4253 13.2917 10.4253 13.4375C10.4253 13.5833 10.48 13.7109 10.5894 13.8203C10.6987 13.9297 10.8263 13.9844 10.9722 13.9844C11.118 13.9844 11.2456 13.9297 11.355 13.8203ZM13.105 13.8203C13.2144 13.7109 13.269 13.5833 13.269 13.4375C13.269 13.2917 13.2144 13.1641 13.105 13.0547C12.9956 12.9453 12.868 12.8906 12.7222 12.8906C12.5763 12.8906 12.4487 12.9453 12.3394 13.0547C12.23 13.1641 12.1753 13.2917 12.1753 13.4375C12.1753 13.5833 12.23 13.7109 12.3394 13.8203C12.4487 13.9297 12.5763 13.9844 12.7222 13.9844C12.868 13.9844 12.9956 13.9297 13.105 13.8203Z" fill="white"/>
<path d="M9.65967 6H9.15967V6.5H9.65967V6ZM12.5581 6.35547L12.0913 6.53503L12.0966 6.54778L12.5581 6.35547ZM3.26123 6.35547L3.72294 6.54785L3.7279 6.53496L3.26123 6.35547ZM6.15967 6V6.5H6.65967V6H6.15967ZM5.58545 10.375L5.939 10.0214L5.79256 9.875H5.58545V10.375ZM10.2339 10.375V9.875H10.0268L9.88033 10.0214L10.2339 10.375ZM6.81592 1.25H9.00342V0.25H6.81592V1.25ZM9.00342 1.25C9.05462 1.25 9.08194 1.26219 9.11471 1.29496L9.82182 0.587853C9.59938 0.365416 9.3168 0.25 9.00342 0.25V1.25ZM9.11471 1.29496C9.14748 1.32773 9.15967 1.35505 9.15967 1.40625H10.1597C10.1597 1.09286 10.0443 0.81029 9.82182 0.587853L9.11471 1.29496ZM9.15967 1.40625V6H10.1597V1.40625H9.15967ZM9.65967 6.5H12.0659V5.5H9.65967V6.5ZM12.0659 6.5C12.0835 6.5 12.0898 6.50218 12.0883 6.50173C12.0861 6.50107 12.0803 6.49876 12.074 6.49421C12.0679 6.48982 12.0669 6.48735 12.0699 6.49155C12.0733 6.49634 12.0816 6.50931 12.0914 6.53496L13.0248 6.17598C12.9532 5.98994 12.838 5.81248 12.6594 5.68353C12.4783 5.55271 12.271 5.5 12.0659 5.5V6.5ZM12.0966 6.54778C12.1049 6.5678 12.1066 6.57836 12.1069 6.58049C12.1071 6.58194 12.1064 6.57748 12.108 6.56953C12.1086 6.56591 12.1096 6.56262 12.1106 6.55992C12.1111 6.55863 12.1115 6.55761 12.1118 6.55689C12.1122 6.55618 12.1124 6.55583 12.1124 6.55585C12.1123 6.55588 12.1114 6.55762 12.1087 6.56101C12.1061 6.56443 12.1018 6.56952 12.0952 6.57613L12.8023 7.28324C12.9414 7.14409 13.05 6.96841 13.0903 6.75664C13.1305 6.54577 13.0946 6.34315 13.0196 6.16316L12.0966 6.54778ZM12.0952 6.57613L7.93893 10.7324L8.64603 11.4395L12.8023 7.28324L12.0952 6.57613ZM7.93893 10.7324C7.93126 10.7401 7.92566 10.7444 7.92243 10.7466C7.92079 10.7478 7.91962 10.7484 7.91892 10.7488C7.91823 10.7492 7.91786 10.7494 7.91779 10.7494C7.91772 10.7494 7.91775 10.7494 7.91784 10.7494C7.91793 10.7494 7.91786 10.7494 7.91757 10.7495C7.91712 10.7495 7.91471 10.75 7.90967 10.75V11.75C8.19678 11.75 8.4492 11.6363 8.64603 11.4395L7.93893 10.7324ZM7.90967 10.75C7.90463 10.75 7.90222 10.7495 7.90177 10.7495C7.90147 10.7494 7.90141 10.7494 7.9015 10.7494C7.90158 10.7494 7.90162 10.7494 7.90155 10.7494C7.90148 10.7494 7.90111 10.7492 7.90041 10.7488C7.89972 10.7484 7.89855 10.7478 7.89691 10.7466C7.89367 10.7444 7.88808 10.7401 7.88041 10.7324L7.1733 11.4395C7.37013 11.6363 7.62256 11.75 7.90967 11.75V10.75ZM7.88041 10.7324L3.72416 6.57613L3.01705 7.28324L7.1733 11.4395L7.88041 10.7324ZM3.72416 6.57613C3.71755 6.56952 3.71323 6.56443 3.71059 6.56101C3.70797 6.55762 3.70699 6.55588 3.70697 6.55585C3.70696 6.55583 3.70716 6.55618 3.70749 6.55689C3.70782 6.55761 3.70826 6.55863 3.70874 6.55992C3.70974 6.56262 3.71069 6.56591 3.71138 6.56953C3.7129 6.57748 3.71222 6.58194 3.71241 6.58049C3.71269 6.57836 3.71443 6.5678 3.72277 6.54778L2.79969 6.16316C2.7247 6.34315 2.68888 6.54577 2.72905 6.75664C2.76938 6.96841 2.87791 7.14409 3.01705 7.28324L3.72416 6.57613ZM3.7279 6.53496C3.73777 6.50931 3.74599 6.49634 3.74942 6.49155C3.75244 6.48735 3.75146 6.48982 3.74538 6.49421C3.73908 6.49876 3.73326 6.50107 3.73103 6.50173C3.7295 6.50218 3.73585 6.5 3.75342 6.5V5.5C3.54836 5.5 3.34102 5.55271 3.15989 5.68353C2.98134 5.81248 2.86611 5.98994 2.79456 6.17598L3.7279 6.53496ZM3.75342 6.5H6.15967V5.5H3.75342V6.5ZM6.65967 6V1.40625H5.65967V6H6.65967ZM6.65967 1.40625C6.65967 1.35505 6.67186 1.32773 6.70463 1.29496L5.99752 0.587853C5.77508 0.81029 5.65967 1.09286 5.65967 1.40625H6.65967ZM6.70463 1.29496C6.7374 1.26219 6.76472 1.25 6.81592 1.25V0.25C6.50253 0.25 6.21996 0.365416 5.99752 0.587853L6.70463 1.29496ZM14.4097 11.0312V14.0938H15.4097V11.0312H14.4097ZM14.4097 14.0938C14.4097 14.1449 14.3975 14.1723 14.3647 14.205L15.0718 14.9121C15.2943 14.6897 15.4097 14.4071 15.4097 14.0938H14.4097ZM14.3647 14.205C14.3319 14.2378 14.3046 14.25 14.2534 14.25V15.25C14.5668 15.25 14.8494 15.1346 15.0718 14.9121L14.3647 14.205ZM14.2534 14.25H1.56592V15.25H14.2534V14.25ZM1.56592 14.25C1.51472 14.25 1.4874 14.2378 1.45463 14.205L0.747521 14.9121C0.969958 15.1346 1.25253 15.25 1.56592 15.25V14.25ZM1.45463 14.205C1.42186 14.1723 1.40967 14.1449 1.40967 14.0938H0.409668C0.409668 14.4071 0.525084 14.6897 0.747521 14.9121L1.45463 14.205ZM1.40967 14.0938V11.0312H0.409668V14.0938H1.40967ZM1.40967 11.0312C1.40967 10.9801 1.42186 10.9527 1.45463 10.92L0.747521 10.2129C0.525084 10.4353 0.409668 10.7179 0.409668 11.0312H1.40967ZM1.45463 10.92C1.4874 10.8872 1.51472 10.875 1.56592 10.875V9.875C1.25253 9.875 0.969958 9.99042 0.747521 10.2129L1.45463 10.92ZM1.56592 10.875H5.58545V9.875H1.56592V10.875ZM5.2319 10.7286L6.57174 12.0684L7.27885 11.3613L5.939 10.0214L5.2319 10.7286ZM6.57174 12.0684C6.93788 12.4345 7.39274 12.625 7.90967 12.625V11.625C7.66097 11.625 7.45959 11.542 7.27885 11.3613L6.57174 12.0684ZM7.90967 12.625C8.42659 12.625 8.88146 12.4345 9.2476 12.0684L8.54049 11.3613C8.35975 11.542 8.15837 11.625 7.90967 11.625V12.625ZM9.2476 12.0684L10.5874 10.7286L9.88033 10.0214L8.54049 11.3613L9.2476 12.0684ZM10.2339 10.875H14.2534V9.875H10.2339V10.875ZM14.2534 10.875C14.3046 10.875 14.3319 10.8872 14.3647 10.92L15.0718 10.2129C14.8494 9.99042 14.5668 9.875 14.2534 9.875V10.875ZM14.3647 10.92C14.3975 10.9527 14.4097 10.9801 14.4097 11.0312H15.4097C15.4097 10.7179 15.2943 10.4353 15.0718 10.2129L14.3647 10.92ZM11.7085 14.1739C11.9054 13.977 12.019 13.7246 12.019 13.4375H11.019C11.019 13.4425 11.0186 13.445 11.0185 13.4454C11.0184 13.4457 11.0184 13.4458 11.0184 13.4457C11.0185 13.4456 11.0185 13.4455 11.0185 13.4456C11.0184 13.4457 11.0183 13.4461 11.0179 13.4468C11.0175 13.4475 11.0168 13.4486 11.0157 13.4503C11.0134 13.4535 11.0091 13.4591 11.0014 13.4668L11.7085 14.1739ZM12.019 13.4375C12.019 13.1504 11.9054 12.898 11.7085 12.7011L11.0014 13.4082C11.0091 13.4159 11.0134 13.4215 11.0157 13.4247C11.0168 13.4264 11.0175 13.4275 11.0179 13.4282C11.0183 13.4289 11.0184 13.4293 11.0185 13.4294C11.0185 13.4295 11.0185 13.4294 11.0184 13.4293C11.0184 13.4292 11.0184 13.4293 11.0185 13.4296C11.0186 13.43 11.019 13.4325 11.019 13.4375H12.019ZM11.7085 12.7011C11.5117 12.5043 11.2593 12.3906 10.9722 12.3906V13.3906C10.9772 13.3906 10.9796 13.3911 10.9801 13.3912C10.9804 13.3912 10.9804 13.3913 10.9803 13.3912C10.9803 13.3912 10.9802 13.3912 10.9803 13.3912C10.9804 13.3912 10.9807 13.3914 10.9814 13.3918C10.9821 13.3922 10.9833 13.3929 10.9849 13.394C10.9882 13.3962 10.9938 13.4006 11.0014 13.4082L11.7085 12.7011ZM10.9722 12.3906C10.6851 12.3906 10.4326 12.5043 10.2358 12.7011L10.9429 13.4082C10.9506 13.4006 10.9562 13.3962 10.9594 13.394C10.961 13.3929 10.9622 13.3922 10.9629 13.3918C10.9636 13.3914 10.964 13.3912 10.964 13.3912C10.9641 13.3912 10.9641 13.3912 10.964 13.3912C10.9639 13.3913 10.964 13.3912 10.9643 13.3912C10.9647 13.3911 10.9671 13.3906 10.9722 13.3906V12.3906ZM10.2358 12.7011C10.039 12.898 9.92529 13.1504 9.92529 13.4375H10.9253C10.9253 13.4325 10.9257 13.43 10.9258 13.4296C10.9259 13.4293 10.9259 13.4292 10.9259 13.4293C10.9259 13.4294 10.9259 13.4295 10.9259 13.4294C10.9259 13.4293 10.9261 13.4289 10.9265 13.4282C10.9268 13.4275 10.9275 13.4264 10.9287 13.4247C10.9309 13.4215 10.9352 13.4159 10.9429 13.4082L10.2358 12.7011ZM9.92529 13.4375C9.92529 13.7246 10.039 13.977 10.2358 14.1739L10.9429 13.4668C10.9352 13.4591 10.9309 13.4535 10.9287 13.4503C10.9275 13.4486 10.9268 13.4475 10.9265 13.4468C10.9261 13.4461 10.9259 13.4457 10.9259 13.4456C10.9259 13.4455 10.9259 13.4456 10.9259 13.4457C10.9259 13.4458 10.9259 13.4457 10.9258 13.4454C10.9257 13.445 10.9253 13.4425 10.9253 13.4375H9.92529ZM10.2358 14.1739C10.4326 14.3707 10.6851 14.4844 10.9722 14.4844V13.4844C10.9671 13.4844 10.9647 13.4839 10.9643 13.4838C10.964 13.4838 10.9639 13.4837 10.964 13.4838C10.9641 13.4838 10.9641 13.4838 10.964 13.4838C10.964 13.4838 10.9636 13.4836 10.9629 13.4832C10.9622 13.4828 10.961 13.4821 10.9594 13.481C10.9562 13.4788 10.9506 13.4744 10.9429 13.4668L10.2358 14.1739ZM10.9722 14.4844C11.2593 14.4844 11.5117 14.3707 11.7085 14.1739L11.0014 13.4668C10.9938 13.4744 10.9882 13.4788 10.9849 13.481C10.9833 13.4821 10.9821 13.4828 10.9814 13.4832C10.9807 13.4836 10.9804 13.4838 10.9803 13.4838C10.9802 13.4838 10.9803 13.4838 10.9803 13.4838C10.9804 13.4837 10.9804 13.4838 10.9801 13.4838C10.9796 13.4839 10.9772 13.4844 10.9722 13.4844V14.4844ZM13.4585 14.1739C13.6554 13.977 13.769 13.7246 13.769 13.4375H12.769C12.769 13.4425 12.7686 13.445 12.7685 13.4454C12.7684 13.4457 12.7684 13.4458 12.7684 13.4457C12.7685 13.4456 12.7685 13.4455 12.7685 13.4456C12.7684 13.4457 12.7683 13.4461 12.7679 13.4468C12.7675 13.4475 12.7668 13.4486 12.7657 13.4503C12.7634 13.4535 12.7591 13.4591 12.7514 13.4668L13.4585 14.1739ZM13.769 13.4375C13.769 13.1504 13.6554 12.898 13.4585 12.7011L12.7514 13.4082C12.7591 13.4159 12.7634 13.4215 12.7657 13.4247C12.7668 13.4264 12.7675 13.4275 12.7679 13.4282C12.7683 13.4289 12.7684 13.4293 12.7685 13.4294C12.7685 13.4295 12.7685 13.4294 12.7684 13.4293C12.7684 13.4292 12.7684 13.4293 12.7685 13.4296C12.7686 13.43 12.769 13.4325 12.769 13.4375H13.769ZM13.4585 12.7011C13.2617 12.5043 13.0093 12.3906 12.7222 12.3906V13.3906C12.7272 13.3906 12.7296 13.3911 12.7301 13.3912C12.7304 13.3912 12.7304 13.3913 12.7303 13.3912C12.7303 13.3912 12.7302 13.3912 12.7303 13.3912C12.7304 13.3912 12.7307 13.3914 12.7314 13.3918C12.7321 13.3922 12.7333 13.3929 12.7349 13.394C12.7382 13.3962 12.7438 13.4006 12.7514 13.4082L13.4585 12.7011ZM12.7222 12.3906C12.4351 12.3906 12.1826 12.5043 11.9858 12.7011L12.6929 13.4082C12.7006 13.4006 12.7062 13.3962 12.7094 13.394C12.711 13.3929 12.7122 13.3922 12.7129 13.3918C12.7136 13.3914 12.714 13.3912 12.714 13.3912C12.7141 13.3912 12.7141 13.3912 12.714 13.3912C12.7139 13.3913 12.714 13.3912 12.7143 13.3912C12.7147 13.3911 12.7171 13.3906 12.7222 13.3906V12.3906ZM11.9858 12.7011C11.789 12.898 11.6753 13.1504 11.6753 13.4375H12.6753C12.6753 13.4325 12.6757 13.43 12.6758 13.4296C12.6759 13.4293 12.6759 13.4292 12.6759 13.4293C12.6759 13.4294 12.6759 13.4295 12.6759 13.4294C12.6759 13.4293 12.6761 13.4289 12.6765 13.4282C12.6768 13.4275 12.6775 13.4264 12.6787 13.4247C12.6809 13.4215 12.6852 13.4159 12.6929 13.4082L11.9858 12.7011ZM11.6753 13.4375C11.6753 13.7246 11.789 13.977 11.9858 14.1739L12.6929 13.4668C12.6852 13.4591 12.6809 13.4535 12.6787 13.4503C12.6775 13.4486 12.6768 13.4475 12.6765 13.4468C12.6761 13.4461 12.6759 13.4457 12.6759 13.4456C12.6759 13.4455 12.6759 13.4456 12.6759 13.4457C12.6759 13.4458 12.6759 13.4457 12.6758 13.4454C12.6757 13.445 12.6753 13.4425 12.6753 13.4375H11.6753ZM11.9858 14.1739C12.1826 14.3707 12.4351 14.4844 12.7222 14.4844V13.4844C12.7171 13.4844 12.7147 13.4839 12.7143 13.4838C12.714 13.4838 12.7139 13.4837 12.714 13.4838C12.7141 13.4838 12.7141 13.4838 12.714 13.4838C12.714 13.4838 12.7136 13.4836 12.7129 13.4832C12.7122 13.4828 12.711 13.4821 12.7094 13.481C12.7062 13.4788 12.7006 13.4744 12.6929 13.4668L11.9858 14.1739ZM12.7222 14.4844C13.0093 14.4844 13.2617 14.3707 13.4585 14.1739L12.7514 13.4668C12.7438 13.4744 12.7382 13.4788 12.7349 13.481C12.7333 13.4821 12.7321 13.4828 12.7314 13.4832C12.7307 13.4836 12.7304 13.4838 12.7303 13.4838C12.7302 13.4838 12.7303 13.4838 12.7303 13.4838C12.7304 13.4837 12.7304 13.4838 12.7301 13.4838C12.7296 13.4839 12.7272 13.4844 12.7222 13.4844V14.4844Z" fill="url(#paint0_linear_680_429)"/>
<defs>
<linearGradient id="paint0_linear_680_429" x1="0.909668" y1="-6.61365" x2="19.9829" y2="-2.93636" gradientUnits="userSpaceOnUse">
<stop stop-color="#177BEA"/>
<stop offset="1" stop-color="#8829F6"/>
</linearGradient>
</defs>
</svg>
