<svg width="12" height="13" viewBox="0 0 12 13" fill="none" xmlns="http://www.w3.org/2000/svg">
<path d="M1.00536 3.42995C1.08574 3.24537 1.209 3.19922 1.36977 3.19922C1.85209 3.20581 2.33441 3.20581 2.81136 3.19922C2.93462 3.19922 3.02036 3.26514 3.0686 3.39699C3.11147 3.50906 3.09003 3.62773 3.02572 3.72002C2.96141 3.81231 2.87567 3.83868 2.77921 3.83209C2.39871 3.83209 2.01822 3.83209 1.63773 3.83209C1.60021 3.83209 1.5627 3.83209 1.51983 3.83209C1.51983 6.34381 1.51983 8.84234 1.51983 11.3475C3.94748 11.3475 6.37513 11.3475 8.8135 11.3475C8.8135 11.2947 8.8135 11.242 8.8135 11.1958C8.8135 9.7521 8.8135 8.30835 8.8135 6.86461C8.8135 6.73276 8.83494 6.62069 8.9314 6.54158C9.08682 6.40973 9.29582 6.5218 9.32797 6.75254C9.33333 6.79869 9.33333 6.84483 9.33333 6.89098C9.33333 8.45998 9.33333 10.029 9.33333 11.598C9.33333 11.7496 9.3119 11.8815 9.194 11.954C9.14041 11.9869 9.07074 11.9935 9.01179 11.9935C7.23794 11.9935 5.45874 11.9935 3.67953 11.9935C2.90247 11.9935 2.1254 11.9869 1.34834 12.0001C1.18757 12.0001 1.07503 11.9474 1 11.7694C1.00536 8.99397 1.00536 6.21196 1.00536 3.42995Z" fill="url(#paint0_linear_1190_7893)" stroke="url(#paint1_linear_1190_7893)" stroke-width="0.2"/>
<path d="M7.43274 2.27977C7.17684 2.32191 6.93118 2.35879 6.69063 2.41148C5.98946 2.56953 5.35995 2.86982 4.85838 3.41772C4.45406 3.86026 4.21351 4.39236 4.07021 4.97188C3.95249 5.45656 3.91667 5.95178 3.91667 6.44701C3.91667 6.58398 3.98832 6.67881 4.0958 6.71042C4.20839 6.74203 4.31075 6.69989 4.3824 6.58398C4.41823 6.5313 4.44382 6.47862 4.47965 6.42066C4.67413 6.08876 4.89933 5.77793 5.17058 5.50925C5.61073 5.07724 6.13788 4.84544 6.74181 4.78749C6.967 4.76641 7.19731 4.76114 7.43274 4.74534C7.43274 4.79802 7.43274 4.82963 7.43274 4.86651C7.43274 5.151 7.43274 5.43549 7.43274 5.71998C7.43274 5.84115 7.45833 5.94125 7.57093 6.00447C7.68353 6.06242 7.78077 6.02027 7.87289 5.95178C8.86579 5.22476 9.85356 4.49246 10.8465 3.7549C11.0512 3.60212 11.0512 3.41772 10.8465 3.27021C9.85868 2.54318 8.86579 1.81089 7.87289 1.08386C7.82683 1.04698 7.76541 1.01537 7.70912 1.00484C7.55046 0.973225 7.42762 1.09966 7.42762 1.29459C7.42762 1.58435 7.42762 1.87938 7.42762 2.16913C7.43274 2.20601 7.43274 2.24289 7.43274 2.27977ZM4.48477 5.51978C4.47453 5.51451 4.46429 5.51451 4.45918 5.50925C4.51036 5.29851 4.5513 5.08251 4.61272 4.87705C4.87885 3.98143 5.44695 3.37558 6.29654 3.05421C6.73157 2.89089 7.18196 2.8224 7.64258 2.78553C7.83707 2.76972 7.92407 2.67489 7.92407 2.4747C7.92407 2.25869 7.92407 2.04269 7.92407 1.83196C7.92407 1.80562 7.92919 1.78455 7.93431 1.74767C8.73784 2.34299 9.53113 2.9225 10.3347 3.51255C9.53113 4.10787 8.73784 4.69266 7.92919 5.28798C7.92919 5.02456 7.92919 4.78749 7.92919 4.55041C7.92919 4.34495 7.83707 4.24485 7.64258 4.25012C7.30479 4.26065 6.96189 4.26065 6.6241 4.29753C5.90757 4.37129 5.29341 4.67158 4.78161 5.19841C4.67925 5.30378 4.58201 5.41442 4.48477 5.51978Z" fill="url(#paint2_linear_1190_7893)" stroke="url(#paint3_linear_1190_7893)" stroke-width="0.2"/>
<defs>
<linearGradient id="paint0_linear_1190_7893" x1="1" y1="-0.438658" x2="12.2839" y2="1.91557" gradientUnits="userSpaceOnUse">
<stop stop-color="#177BEA"/>
<stop offset="1" stop-color="#8829F6"/>
</linearGradient>
<linearGradient id="paint1_linear_1190_7893" x1="1" y1="-0.438658" x2="12.2839" y2="1.91557" gradientUnits="userSpaceOnUse">
<stop stop-color="#177BEA"/>
<stop offset="1" stop-color="#8829F6"/>
</linearGradient>
<linearGradient id="paint2_linear_1190_7893" x1="11" y1="-1.36462" x2="1.68456" y2="1.17692" gradientUnits="userSpaceOnUse">
<stop stop-color="#8829F6"/>
<stop offset="1" stop-color="#177BEA"/>
</linearGradient>
<linearGradient id="paint3_linear_1190_7893" x1="11" y1="-1.36462" x2="1.68456" y2="1.17692" gradientUnits="userSpaceOnUse">
<stop stop-color="#8829F6"/>
<stop offset="1" stop-color="#177BEA"/>
</linearGradient>
</defs>
</svg>
