<svg width="20" height="21" viewBox="0 0 20 21" fill="none" xmlns="http://www.w3.org/2000/svg">
<path d="M3.125 3.66602C5.02604 1.76497 7.31771 0.814453 10 0.814453C12.6823 0.814453 14.9609 1.76497 16.8359 3.66602C18.737 5.54102 19.6875 7.81966 19.6875 10.502C19.6875 13.1842 18.737 15.4759 16.8359 17.377C14.9609 19.252 12.6823 20.1895 10 20.1895C7.31771 20.1895 5.02604 19.252 3.125 17.377C1.25 15.4759 0.3125 13.1842 0.3125 10.502C0.3125 7.81966 1.25 5.54102 3.125 3.66602ZM4.45312 16.0488C5.98958 17.5592 7.83854 18.3145 10 18.3145C12.1615 18.3145 13.9974 17.5592 15.5078 16.0488C17.0443 14.5124 17.8125 12.6634 17.8125 10.502C17.8125 8.34049 17.0443 6.50456 15.5078 4.99414C13.9974 3.45768 12.1615 2.68945 10 2.68945C7.83854 2.68945 5.98958 3.45768 4.45312 4.99414C2.94271 6.50456 2.1875 8.34049 2.1875 10.502C2.1875 12.6634 2.94271 14.5124 4.45312 16.0488ZM14.1797 8.35352C14.1797 8.95247 14.0365 9.46029 13.75 9.87695C13.4635 10.2936 13.138 10.5931 12.7734 10.7754C12.4089 10.9577 12.0833 11.153 11.7969 11.3613C11.5104 11.5697 11.3672 11.778 11.3672 11.9863V12.2207C11.3672 12.3509 11.3151 12.4681 11.2109 12.5723C11.1328 12.6504 11.0286 12.6895 10.8984 12.6895H9.10156C8.97135 12.6895 8.85417 12.6504 8.75 12.5723C8.67188 12.4681 8.63281 12.3509 8.63281 12.2207V11.8691C8.63281 11.5566 8.6849 11.2702 8.78906 11.0098C8.89323 10.7493 9.0625 10.515 9.29688 10.3066C9.53125 10.0983 9.71354 9.95508 9.84375 9.87695C9.97396 9.77279 10.1953 9.64258 10.5078 9.48633C10.7161 9.35612 10.8724 9.26497 10.9766 9.21289C11.0807 9.13477 11.1849 9.05664 11.2891 8.97852C11.4193 8.87435 11.4974 8.77018 11.5234 8.66602C11.5755 8.56185 11.6016 8.44466 11.6016 8.31445C11.6016 8.00195 11.4323 7.74154 11.0938 7.5332C10.7812 7.32487 10.4297 7.2207 10.0391 7.2207C9.7526 7.2207 9.49219 7.27279 9.25781 7.37695C9.04948 7.45508 8.86719 7.57227 8.71094 7.72852C8.55469 7.88477 8.35938 8.10612 8.125 8.39258C7.94271 8.62695 7.73438 8.65299 7.5 8.4707L6.40625 7.65039C6.17188 7.4681 6.13281 7.24674 6.28906 6.98633C7.2526 5.58008 8.56771 4.87695 10.2344 4.87695C11.224 4.87695 12.1224 5.21549 12.9297 5.89258C13.763 6.56966 14.1797 7.38997 14.1797 8.35352ZM11.1328 13.7441C11.4714 14.0566 11.6406 14.4342 11.6406 14.877C11.6406 15.3197 11.4714 15.7103 11.1328 16.0488C10.8203 16.3613 10.4427 16.5176 10 16.5176C9.55729 16.5176 9.16667 16.3613 8.82812 16.0488C8.51562 15.7103 8.35938 15.3197 8.35938 14.877C8.35938 14.4342 8.51562 14.0566 8.82812 13.7441C9.16667 13.4056 9.55729 13.2363 10 13.2363C10.4427 13.2363 10.8203 13.4056 11.1328 13.7441Z" fill="#999999"/>
</svg>
