<svg width="12" height="13" viewBox="0 0 12 13" fill="none" xmlns="http://www.w3.org/2000/svg">
<path d="M1.00536 3.42995C1.08574 3.24537 1.209 3.19922 1.36977 3.19922C1.85209 3.20581 2.33441 3.20581 2.81136 3.19922C2.93462 3.19922 3.02036 3.26514 3.0686 3.39699C3.11147 3.50906 3.09003 3.62773 3.02572 3.72002C2.96141 3.81231 2.87567 3.83868 2.77921 3.83209C2.39871 3.83209 2.01822 3.83209 1.63773 3.83209C1.60021 3.83209 1.5627 3.83209 1.51983 3.83209C1.51983 6.34381 1.51983 8.84234 1.51983 11.3475C3.94748 11.3475 6.37513 11.3475 8.8135 11.3475C8.8135 11.2947 8.8135 11.242 8.8135 11.1958C8.8135 9.7521 8.8135 8.30835 8.8135 6.86461C8.8135 6.73276 8.83494 6.62069 8.9314 6.54158C9.08682 6.40973 9.29582 6.5218 9.32797 6.75254C9.33333 6.79869 9.33333 6.84483 9.33333 6.89098C9.33333 8.45998 9.33333 10.029 9.33333 11.598C9.33333 11.7496 9.3119 11.8815 9.194 11.954C9.14041 11.9869 9.07074 11.9935 9.01179 11.9935C7.23794 11.9935 5.45873 11.9935 3.67953 11.9935C2.90247 11.9935 2.1254 11.9869 1.34834 12.0001C1.18757 12.0001 1.07503 11.9474 1 11.7694C1.00536 8.99397 1.00536 6.21196 1.00536 3.42995Z" fill="white" stroke="white" stroke-width="0.2"/>
<path d="M7.48523 2.27977C7.74113 2.32191 7.98679 2.35879 8.22734 2.41148C8.92851 2.56953 9.55802 2.86982 10.0596 3.41772C10.4639 3.86026 10.7045 4.39236 10.8478 4.97188C10.9655 5.45656 11.0013 5.95178 11.0013 6.44701C11.0013 6.58398 10.9296 6.67881 10.8222 6.71042C10.7096 6.74203 10.6072 6.69989 10.5356 6.58398C10.4997 6.5313 10.4741 6.47862 10.4383 6.42066C10.2438 6.08876 10.0186 5.77793 9.74739 5.50925C9.30724 5.07724 8.78008 4.84544 8.17616 4.78749C7.95096 4.76641 7.72065 4.76114 7.48523 4.74534C7.48523 4.79802 7.48523 4.82963 7.48523 4.86651C7.48523 5.151 7.48523 5.43549 7.48523 5.71998C7.48523 5.84115 7.45964 5.94125 7.34704 6.00447C7.23444 6.06242 7.1372 6.02027 7.04508 5.95178C6.05218 5.22476 5.0644 4.49246 4.07151 3.7549C3.86679 3.60212 3.86679 3.41772 4.07151 3.27021C5.05929 2.54318 6.05218 1.81089 7.04508 1.08386C7.09114 1.04698 7.15255 1.01537 7.20885 1.00484C7.36751 0.973225 7.49034 1.09966 7.49034 1.29459C7.49034 1.58435 7.49034 1.87938 7.49034 2.16913C7.48523 2.20601 7.48523 2.24289 7.48523 2.27977ZM10.4332 5.51978C10.4434 5.51451 10.4537 5.51451 10.4588 5.50925C10.4076 5.29851 10.3667 5.08251 10.3053 4.87705C10.0391 3.98143 9.47102 3.37558 8.62143 3.05421C8.18639 2.89089 7.73601 2.8224 7.27539 2.78553C7.0809 2.76972 6.9939 2.67489 6.9939 2.4747C6.9939 2.25869 6.9939 2.04269 6.9939 1.83196C6.9939 1.80562 6.98878 1.78455 6.98366 1.74767C6.18013 2.34299 5.38684 2.9225 4.58331 3.51255C5.38684 4.10787 6.18013 4.69266 6.98878 5.28798C6.98878 5.02456 6.98878 4.78749 6.98878 4.55041C6.98878 4.34495 7.0809 4.24485 7.27539 4.25012C7.61318 4.26065 7.95608 4.26065 8.29387 4.29753C9.01039 4.37129 9.62456 4.67158 10.1364 5.19841C10.2387 5.30378 10.336 5.41442 10.4332 5.51978Z" fill="white" stroke="white" stroke-width="0.2"/>
</svg>
