<svg width="19" height="19" viewBox="0 0 19 19" fill="none" xmlns="http://www.w3.org/2000/svg">
<circle cx="9.74646" cy="9.875" r="8.5" stroke="#999999"/>
<path d="M8.43689 12.707H8.82751V9.89453H8.43689C8.33272 9.89453 8.24158 9.85547 8.16345 9.77734C8.08533 9.69922 8.04626 9.60807 8.04626 9.50391V8.56641C8.04626 8.46224 8.08533 8.37109 8.16345 8.29297C8.24158 8.21484 8.33272 8.17578 8.43689 8.17578H10.6244C10.7286 8.17578 10.8197 8.21484 10.8978 8.29297C10.976 8.37109 11.015 8.46224 11.015 8.56641V12.707H11.4056C11.5098 12.707 11.601 12.7461 11.6791 12.8242C11.7572 12.9023 11.7963 12.9935 11.7963 13.0977V14.0352C11.7963 14.1393 11.7572 14.2305 11.6791 14.3086C11.601 14.3867 11.5098 14.4258 11.4056 14.4258H8.43689C8.33272 14.4258 8.24158 14.3867 8.16345 14.3086C8.08533 14.2305 8.04626 14.1393 8.04626 14.0352V13.0977C8.04626 12.9935 8.08533 12.9023 8.16345 12.8242C8.24158 12.7461 8.33272 12.707 8.43689 12.707ZM8.92517 4.83594C9.19861 4.5625 9.53064 4.42578 9.92126 4.42578C10.3119 4.42578 10.6439 4.5625 10.9174 4.83594C11.1908 5.10938 11.3275 5.44141 11.3275 5.83203C11.3275 6.22266 11.1908 6.55469 10.9174 6.82812C10.6439 7.10156 10.3119 7.23828 9.92126 7.23828C9.53064 7.23828 9.19861 7.10156 8.92517 6.82812C8.65173 6.55469 8.51501 6.22266 8.51501 5.83203C8.51501 5.44141 8.65173 5.10938 8.92517 4.83594Z" fill="#999999"/>
</svg>
