<svg width="18" height="18" viewBox="0 0 18 18" fill="none" xmlns="http://www.w3.org/2000/svg">
<circle cx="9" cy="9" r="8.5" stroke="#FF9F43"/>
<path d="M7.69061 12.5312H8.08124V9.71875H7.69061C7.58645 9.71875 7.4953 9.67969 7.41718 9.60156C7.33905 9.52344 7.29999 9.43229 7.29999 9.32812V8.39062C7.29999 8.28646 7.33905 8.19531 7.41718 8.11719C7.4953 8.03906 7.58645 8 7.69061 8H9.87811C9.98228 8 10.0734 8.03906 10.1516 8.11719C10.2297 8.19531 10.2687 8.28646 10.2687 8.39062V12.5312H10.6594C10.7635 12.5312 10.8547 12.5703 10.9328 12.6484C11.0109 12.7266 11.05 12.8177 11.05 12.9219V13.8594C11.05 13.9635 11.0109 14.0547 10.9328 14.1328C10.8547 14.2109 10.7635 14.25 10.6594 14.25H7.69061C7.58645 14.25 7.4953 14.2109 7.41718 14.1328C7.33905 14.0547 7.29999 13.9635 7.29999 13.8594V12.9219C7.29999 12.8177 7.33905 12.7266 7.41718 12.6484C7.4953 12.5703 7.58645 12.5312 7.69061 12.5312ZM8.17889 4.66016C8.45233 4.38672 8.78436 4.25 9.17499 4.25C9.56561 4.25 9.89764 4.38672 10.1711 4.66016C10.4445 4.93359 10.5812 5.26562 10.5812 5.65625C10.5812 6.04688 10.4445 6.37891 10.1711 6.65234C9.89764 6.92578 9.56561 7.0625 9.17499 7.0625C8.78436 7.0625 8.45233 6.92578 8.17889 6.65234C7.90546 6.37891 7.76874 6.04688 7.76874 5.65625C7.76874 5.26562 7.90546 4.93359 8.17889 4.66016Z" fill="#FF9F43"/>
</svg>
