<svg width="19" height="22" viewBox="0 0 19 22" fill="none" xmlns="http://www.w3.org/2000/svg">
<path d="M15.197 11.6094C15.197 13.5781 16.1501 15.0156 18.0564 15.9219C17.6814 17.1094 17.0408 18.3281 16.1345 19.5781C15.2283 20.8281 14.2751 21.4688 13.2751 21.5C12.8376 21.5 12.2595 21.3594 11.5408 21.0781C10.822 20.7969 10.197 20.6562 9.66577 20.6562C9.13452 20.6562 8.4939 20.7969 7.7439 21.0781C7.02515 21.3594 6.4939 21.5 6.15015 21.5C5.46265 21.5312 4.72827 21.1562 3.94702 20.375C3.19702 19.5938 2.58765 18.7812 2.1189 17.9375C1.6814 17.0938 1.33765 16.3281 1.08765 15.6406C0.650146 14.3281 0.431396 13.0625 0.431396 11.8438C0.431396 9.875 0.962646 8.34375 2.02515 7.25C3.1189 6.15625 4.38452 5.59375 5.82202 5.5625C6.29077 5.5625 6.96265 5.71875 7.83765 6.03125C8.71265 6.34375 9.2439 6.5 9.4314 6.5C9.52515 6.5 10.072 6.32812 11.072 5.98438C12.072 5.64063 12.9001 5.48437 13.5564 5.51562C15.3376 5.67187 16.6658 6.375 17.5408 7.625C15.947 8.5625 15.1658 9.89062 15.197 11.6094ZM12.5251 3.875C11.5251 5.0625 10.447 5.60938 9.29077 5.51562C9.16577 4.26562 9.5564 3.14062 10.4626 2.14062C10.8376 1.70313 11.322 1.32813 11.9158 1.01562C12.5095 0.703125 13.0876 0.53125 13.6501 0.5C13.7439 1.75 13.3689 2.875 12.5251 3.875Z" fill="url(#paint0_linear_244_137)"/>
<defs>
<linearGradient id="paint0_linear_244_137" x1="2.68929" y1="2.65854" x2="19.2637" y2="14.9794" gradientUnits="userSpaceOnUse">
<stop stop-color="#657093"/>
<stop offset="1" stop-color="#253053"/>
</linearGradient>
</defs>
</svg>
