<svg width="19" height="22" viewBox="0 0 19 22" fill="none" xmlns="http://www.w3.org/2000/svg">
<path d="M15.1973 11.6094C15.1973 13.5781 16.1504 15.0156 18.0566 15.9219C17.6816 17.1094 17.041 18.3281 16.1348 19.5781C15.2285 20.8281 14.2754 21.4688 13.2754 21.5C12.8379 21.5 12.2598 21.3594 11.541 21.0781C10.8223 20.7969 10.1973 20.6562 9.66602 20.6562C9.13477 20.6562 8.49414 20.7969 7.74414 21.0781C7.02539 21.3594 6.49414 21.5 6.15039 21.5C5.46289 21.5312 4.72852 21.1562 3.94727 20.375C3.19727 19.5938 2.58789 18.7812 2.11914 17.9375C1.68164 17.0938 1.33789 16.3281 1.08789 15.6406C0.650391 14.3281 0.431641 13.0625 0.431641 11.8438C0.431641 9.875 0.962891 8.34375 2.02539 7.25C3.11914 6.15625 4.38477 5.59375 5.82227 5.5625C6.29102 5.5625 6.96289 5.71875 7.83789 6.03125C8.71289 6.34375 9.24414 6.5 9.43164 6.5C9.55664 6.5 9.77539 6.45312 10.0879 6.35938C10.4316 6.23437 10.7754 6.10938 11.1191 5.98438C11.4629 5.82813 11.8535 5.70312 12.291 5.60938C12.7598 5.51562 13.1816 5.48437 13.5566 5.51562C15.3379 5.67187 16.666 6.375 17.541 7.625C15.9473 8.5625 15.166 9.89062 15.1973 11.6094ZM12.5254 3.875C11.5254 5.0625 10.4473 5.60938 9.29102 5.51562C9.16602 4.26562 9.55664 3.14062 10.4629 2.14062C10.8379 1.70313 11.3223 1.32813 11.916 1.01562C12.5098 0.703125 13.0879 0.53125 13.6504 0.5C13.7441 1.75 13.3691 2.875 12.5254 3.875Z" fill="white"/>
</svg>
