<svg width="22" height="22" viewBox="0 0 22 22" fill="none" xmlns="http://www.w3.org/2000/svg">
<path d="M20 8.76794C20.4062 8.76794 20.75 8.92419 21.0312 9.23669C21.3438 9.51794 21.5 9.86169 21.5 10.2679V11.7679C21.5 12.1742 21.3438 12.5336 21.0312 12.8461C20.75 13.1273 20.4062 13.2679 20 13.2679H13.25V20.0179C13.25 20.4242 13.0938 20.7679 12.7812 21.0492C12.5 21.3617 12.1562 21.5179 11.75 21.5179H10.25C9.84375 21.5179 9.48438 21.3617 9.17188 21.0492C8.89062 20.7679 8.75 20.4242 8.75 20.0179V13.2679H2C1.59375 13.2679 1.23438 13.1273 0.921875 12.8461C0.640625 12.5336 0.5 12.1742 0.5 11.7679V10.2679C0.5 9.86169 0.640625 9.51794 0.921875 9.23669C1.23438 8.92419 1.59375 8.76794 2 8.76794H8.75V2.01794C8.75 1.61169 8.89062 1.26794 9.17188 0.986694C9.48438 0.674194 9.84375 0.517944 10.25 0.517944H11.75C12.1562 0.517944 12.5 0.674194 12.7812 0.986694C13.0938 1.26794 13.25 1.61169 13.25 2.01794V8.76794H20Z" fill="url(#paint0_linear_7_8)"/>
<defs>
<linearGradient id="paint0_linear_7_8" x1="3.35295" y1="1.28624" x2="22.6898" y2="15.6605" gradientUnits="userSpaceOnUse">
<stop stop-color="#657093"/>
<stop offset="1" stop-color="#253053"/>
</linearGradient>
</defs>
</svg>
