<svg width="32" height="36" viewBox="0 0 32 36" fill="none" xmlns="http://www.w3.org/2000/svg">
<path fill-rule="evenodd" clip-rule="evenodd" d="M2.37611 7.24952L13.5248 0.705107C15.025 -0.175542 16.8837 -0.177889 18.3861 0.698967L29.6134 7.25146C31.0913 8.11399 32 9.69653 32 11.4078V23.9014C32 25.6186 31.0851 27.2057 29.5991 28.0661L18.5392 34.47C17.0598 35.3266 15.2371 35.334 13.7509 34.4894L2.43483 28.0594C0.929766 27.2042 0 25.6065 0 23.8753V11.3997C0 9.69279 0.904141 8.11359 2.37611 7.24952Z" fill="#18CB69"/>
<g filter="url(#filter0_d_1190_1868)">
<path d="M9.63031 24.0618H22.6178V18.0532C22.6178 17.7211 22.887 17.4519 23.2191 17.4519C23.5512 17.4519 23.8204 17.7211 23.8204 18.0532V24.5513C23.8204 24.6067 23.8129 24.6603 23.7989 24.7113C23.7745 25.0212 23.5153 25.2651 23.1991 25.2651H9.02542C8.69318 25.2651 8.42384 24.9957 8.42384 24.6635C8.42384 24.6373 8.42551 24.6115 8.42876 24.5861C8.4281 24.5746 8.42777 24.563 8.42777 24.5513V10.3525C8.42777 10.3409 8.4281 10.3293 8.42875 10.3179C8.42422 10.2881 8.42188 10.2576 8.42188 10.2266C8.42188 9.89435 8.69121 9.625 9.02345 9.625H19.353C19.6852 9.625 19.9545 9.89435 19.9545 10.2266C19.9545 10.5589 19.6852 10.8282 19.353 10.8282H9.63031V24.0618ZM16.3818 20.117C16.2713 20.2277 16.1406 20.2979 16.0022 20.3461C15.6351 20.5097 15.1921 20.4471 14.8912 20.1458L12.3072 17.5575C11.917 17.1666 11.7278 16.8061 12.118 16.4163C12.5082 16.0255 12.8488 16.2339 13.238 16.6247L15.6313 19.0206L21.8697 12.7724C22.257 12.3845 22.57 12.2384 22.9573 12.6263C23.3446 13.0142 23.1791 13.3086 22.7918 13.6965L16.3818 20.117Z" fill="black"/>
</g>
<path d="M9.63031 24.0618H22.6178V18.0532C22.6178 17.7211 22.887 17.4519 23.2191 17.4519C23.5512 17.4519 23.8204 17.7211 23.8204 18.0532V24.5513C23.8204 24.6067 23.8129 24.6603 23.7989 24.7113C23.7745 25.0212 23.5153 25.2651 23.1991 25.2651H9.02542C8.69318 25.2651 8.42384 24.9957 8.42384 24.6635C8.42384 24.6373 8.42551 24.6115 8.42876 24.5861C8.4281 24.5746 8.42777 24.563 8.42777 24.5513V10.3525C8.42777 10.3409 8.4281 10.3293 8.42875 10.3179C8.42422 10.2881 8.42188 10.2576 8.42188 10.2266C8.42188 9.89435 8.69121 9.625 9.02345 9.625H19.353C19.6852 9.625 19.9545 9.89435 19.9545 10.2266C19.9545 10.5589 19.6852 10.8282 19.353 10.8282H9.63031V24.0618ZM16.3818 20.117C16.2713 20.2277 16.1406 20.2979 16.0022 20.3461C15.6351 20.5097 15.1921 20.4471 14.8912 20.1458L12.3072 17.5575C11.917 17.1666 11.7278 16.8061 12.118 16.4163C12.5082 16.0255 12.8488 16.2339 13.238 16.6247L15.6313 19.0206L21.8697 12.7724C22.257 12.3845 22.57 12.2384 22.9573 12.6263C23.3446 13.0142 23.1791 13.3086 22.7918 13.6965L16.3818 20.117Z" fill="white"/>
<defs>
<filter id="filter0_d_1190_1868" x="4.42188" y="7.625" width="23.3984" height="23.6406" filterUnits="userSpaceOnUse" color-interpolation-filters="sRGB">
<feFlood flood-opacity="0" result="BackgroundImageFix"/>
<feColorMatrix in="SourceAlpha" type="matrix" values="0 0 0 0 0 0 0 0 0 0 0 0 0 0 0 0 0 0 127 0" result="hardAlpha"/>
<feOffset dy="2"/>
<feGaussianBlur stdDeviation="2"/>
<feColorMatrix type="matrix" values="0 0 0 0 0 0 0 0 0 0 0 0 0 0 0 0 0 0 0.258413 0"/>
<feBlend mode="normal" in2="BackgroundImageFix" result="effect1_dropShadow_1190_1868"/>
<feBlend mode="normal" in="SourceGraphic" in2="effect1_dropShadow_1190_1868" result="shape"/>
</filter>
</defs>
</svg>
