<svg width="22" height="22" viewBox="0 0 22 22" fill="none" xmlns="http://www.w3.org/2000/svg">
<path d="M9.40625 2.15857L10.4844 1.12732C10.7031 0.908569 10.9688 0.799194 11.2812 0.799194C11.5938 0.799194 11.8594 0.908569 12.0781 1.12732L21.1719 10.2211C21.3906 10.4398 21.5 10.7054 21.5 11.0179C21.5 11.3304 21.3906 11.5961 21.1719 11.8148L12.0781 20.9086C11.8594 21.1273 11.5938 21.2367 11.2812 21.2367C10.9688 21.2367 10.7031 21.1273 10.4844 20.9086L9.40625 19.8773C9.1875 19.6586 9.07812 19.3929 9.07812 19.0804C9.10938 18.7679 9.23438 18.5023 9.45312 18.2836L15.0781 12.8929H1.625C1.3125 12.8929 1.04688 12.7836 0.828125 12.5648C0.609375 12.3461 0.5 12.0804 0.5 11.7679V10.2679C0.5 9.95544 0.609375 9.68982 0.828125 9.47107C1.04688 9.25232 1.3125 9.14294 1.625 9.14294H15.0781L9.45312 3.75232C9.23438 3.53357 9.10938 3.26794 9.07812 2.95544C9.07812 2.64294 9.1875 2.37732 9.40625 2.15857Z" fill="url(#paint0_linear_53_8)"/>
<defs>
<linearGradient id="paint0_linear_53_8" x1="0.5" y1="-14.5559" x2="29.3845" y2="-9.78261" gradientUnits="userSpaceOnUse">
<stop stop-color="#177BEA"/>
<stop offset="1" stop-color="#8829F6"/>
</linearGradient>
</defs>
</svg>
