<svg width="12" height="19" viewBox="0 0 12 19" fill="none" xmlns="http://www.w3.org/2000/svg">
<path d="M11.1653 10.4476L3.72778 17.8851C3.47257 18.1403 3.16268 18.2679 2.7981 18.2679C2.43351 18.2679 2.12362 18.1403 1.86841 17.8851L0.665283 16.6273C0.410075 16.3721 0.282471 16.0622 0.282471 15.6976C0.282471 15.333 0.410075 15.0232 0.665283 14.7679L5.91528 9.51794L0.665283 4.26794C0.410075 4.01274 0.282471 3.70284 0.282471 3.33826C0.282471 2.97367 0.410075 2.66378 0.665283 2.40857L1.86841 1.15076C2.12362 0.895549 2.43351 0.767944 2.7981 0.767944C3.16268 0.767944 3.47257 0.895549 3.72778 1.15076L11.1653 8.58826C11.4205 8.84347 11.5481 9.15336 11.5481 9.51794C11.5481 9.88253 11.4205 10.1924 11.1653 10.4476Z" fill="white"/>
</svg>
