<svg width="14" height="15" viewBox="0 0 14 15" fill="none" xmlns="http://www.w3.org/2000/svg">
<path d="M2.09717 2.96484C3.4279 1.63411 5.03206 0.96875 6.90967 0.96875C8.78727 0.96875 10.3823 1.63411 11.6948 2.96484C13.0256 4.27734 13.6909 5.8724 13.6909 7.75C13.6909 9.6276 13.0256 11.2318 11.6948 12.5625C10.3823 13.875 8.78727 14.5312 6.90967 14.5312C5.03206 14.5312 3.4279 13.875 2.09717 12.5625C0.784668 11.2318 0.128418 9.6276 0.128418 7.75C0.128418 5.8724 0.784668 4.27734 2.09717 2.96484ZM3.02686 11.6328C4.10238 12.6901 5.39665 13.2188 6.90967 13.2188C8.42269 13.2188 9.70785 12.6901 10.7651 11.6328C11.8407 10.5573 12.3784 9.26302 12.3784 7.75C12.3784 6.23698 11.8407 4.95182 10.7651 3.89453C9.70785 2.81901 8.42269 2.28125 6.90967 2.28125C5.39665 2.28125 4.10238 2.81901 3.02686 3.89453C1.96956 4.95182 1.44092 6.23698 1.44092 7.75C1.44092 9.26302 1.96956 10.5573 3.02686 11.6328ZM8.60498 10.375L6.28076 8.67969C6.18962 8.60677 6.14404 8.51562 6.14404 8.40625V3.92188C6.14404 3.70312 6.25342 3.59375 6.47217 3.59375H7.34717C7.56592 3.59375 7.67529 3.70312 7.67529 3.92188V7.80469L9.50732 9.11719C9.67139 9.24479 9.68962 9.39974 9.56201 9.58203L9.06982 10.293C8.94222 10.4753 8.78727 10.5026 8.60498 10.375Z" fill="url(#paint0_linear_680_426)"/>
<defs>
<linearGradient id="paint0_linear_680_426" x1="-0.090332" y1="-6.61365" x2="18.9829" y2="-2.93636" gradientUnits="userSpaceOnUse">
<stop stop-color="#177BEA"/>
<stop offset="1" stop-color="#8829F6"/>
</linearGradient>
</defs>
</svg>
