<svg width="15" height="14" viewBox="0 0 15 14" fill="none" xmlns="http://www.w3.org/2000/svg">
<path d="M12.1069 0.777344C12.547 0.540365 12.9787 0.565755 13.4019 0.853516C13.825 1.12435 14.0028 1.51367 13.9351 2.02148L12.4116 11.873C12.3439 12.2624 12.1408 12.5501 11.8022 12.7363C11.616 12.8379 11.4214 12.8887 11.2183 12.8887C11.049 12.8887 10.8882 12.8633 10.7358 12.8125L7.89209 11.6445L6.80029 13.1426C6.56331 13.4303 6.26709 13.5911 5.91162 13.625C5.57308 13.6589 5.26839 13.5573 4.99756 13.3203C4.72673 13.0833 4.59131 12.7786 4.59131 12.4062V10.2734L1.69678 9.05469C1.22282 8.86849 0.968913 8.52148 0.935059 8.01367C0.901204 7.50586 1.10433 7.125 1.54443 6.87109L12.1069 0.777344ZM5.81006 12.4062L6.74951 11.1367L5.81006 10.7559V12.4062ZM11.2183 11.6699L12.7163 1.84375L2.15381 7.9375L4.896 9.08008L10.2534 4.38281C10.4396 4.23047 10.6174 4.23893 10.7866 4.4082C10.9728 4.56055 10.9982 4.73828 10.8628 4.94141L7.30811 10.0703L11.2183 11.6699Z" fill="url(#paint0_linear_680_424)"/>
<defs>
<linearGradient id="paint0_linear_680_424" x1="0.909668" y1="-6.2003" x2="18.6326" y2="-2.81589" gradientUnits="userSpaceOnUse">
<stop stop-color="#177BEA"/>
<stop offset="1" stop-color="#8829F6"/>
</linearGradient>
</defs>
</svg>
