<svg width="18" height="20" viewBox="0 0 18 20" fill="none" xmlns="http://www.w3.org/2000/svg">
<path d="M10.4688 16.25C10.1562 16.25 10 16.0938 10 15.7812V7.34375C10 7.03125 10.1562 6.875 10.4688 6.875H11.4062C11.7188 6.875 11.875 7.03125 11.875 7.34375V15.7812C11.875 16.0938 11.7188 16.25 11.4062 16.25H10.4688ZM16.875 3.125C17.0573 3.125 17.2005 3.1901 17.3047 3.32031C17.4349 3.42448 17.5 3.56771 17.5 3.75V4.375C17.5 4.55729 17.4349 4.71354 17.3047 4.84375C17.2005 4.94792 17.0573 5 16.875 5H16.25V18.125C16.25 18.6458 16.0677 19.0885 15.7031 19.4531C15.3385 19.8177 14.8958 20 14.375 20H3.125C2.60417 20 2.16146 19.8177 1.79688 19.4531C1.43229 19.0885 1.25 18.6458 1.25 18.125V5H0.625C0.442708 5 0.286458 4.94792 0.15625 4.84375C0.0520833 4.71354 0 4.55729 0 4.375V3.75C0 3.56771 0.0520833 3.42448 0.15625 3.32031C0.286458 3.1901 0.442708 3.125 0.625 3.125H3.82812L5.15625 0.898438C5.3125 0.664062 5.54688 0.455729 5.85938 0.273438C6.17188 0.0911458 6.48438 0 6.79688 0H10.7031C10.9115 0 11.1198 0.0390625 11.3281 0.117188C11.5365 0.195312 11.7318 0.3125 11.9141 0.46875C12.0964 0.598958 12.2396 0.742188 12.3438 0.898438L13.6719 3.125H16.875ZM6.71875 1.99219L6.01562 3.125H11.4844L10.7812 1.99219C10.7292 1.91406 10.6641 1.875 10.5859 1.875H6.91406C6.83594 1.875 6.77083 1.91406 6.71875 1.99219ZM14.375 18.125V5H3.125V18.125H14.375ZM6.09375 16.25C5.78125 16.25 5.625 16.0938 5.625 15.7812V7.34375C5.625 7.03125 5.78125 6.875 6.09375 6.875H7.03125C7.34375 6.875 7.5 7.03125 7.5 7.34375V15.7812C7.5 16.0938 7.34375 16.25 7.03125 16.25H6.09375Z" fill="url(#paint0_linear_567_468)"/>
<defs>
<linearGradient id="paint0_linear_567_468" x1="6.79111e-08" y1="-11.0071" x2="24.6998" y2="-6.74787" gradientUnits="userSpaceOnUse">
<stop stop-color="#FF645A"/>
<stop offset="1" stop-color="#CD0101"/>
</linearGradient>
</defs>
</svg>
