<svg width="50" height="65" viewBox="0 0 50 65" fill="none" xmlns="http://www.w3.org/2000/svg">
<path d="M49.322 17.4883V40.1886C49.322 42.8171 48.884 45.3659 48.1273 47.7554C44.9413 57.4727 35.8213 64.482 25.0287 64.482C13.5192 64.482 3.88154 56.4771 1.37255 45.7641C0.934477 43.972 0.735352 42.1002 0.735352 40.1886V17.4883C0.735352 17.3688 0.735351 17.2095 0.775176 17.09C0.974302 16.1741 1.77081 15.497 2.72661 15.497C3.68241 15.497 4.47892 16.1741 4.67804 17.09C4.71787 17.2095 4.71787 17.3688 4.71787 17.4883V40.1886C4.71787 51.4193 13.798 60.4995 25.0287 60.4995C36.2594 60.4995 45.3395 51.4193 45.3395 40.1886V17.4883C45.3395 10.4392 39.6445 4.74423 32.5955 4.74423C25.9049 4.74423 20.4488 9.88168 19.8913 16.4528H19.8514V39.9895C19.8514 42.9764 22.2409 45.3659 25.2278 45.3659C28.2147 45.3659 30.6042 42.9764 30.6042 39.9895V22.6656L28.4537 24.8559C28.0952 25.2144 27.5775 25.4533 27.02 25.4533C25.9049 25.4533 25.0287 24.5772 25.0287 23.4621C25.0287 23.1435 25.1084 22.8647 25.2278 22.5859L26.0243 21.7098L27.6173 20.0371L30.6042 16.8511L30.8432 16.6121L31.4804 15.8953L32.5955 14.7005L33.7106 15.8953L34.5867 16.8113L36.4187 18.7229L39.5251 21.9885L39.6445 22.108C39.9631 22.4664 40.1623 22.9045 40.1623 23.4222C40.1623 24.2586 39.6445 25.0152 38.848 25.294C38.6489 25.3737 38.41 25.4135 38.1312 25.4135C37.494 25.4135 36.8966 25.0949 36.5382 24.617L34.5469 22.6257V39.9497C34.5469 40.5471 34.4673 41.1444 34.3876 41.7418C33.5513 46.0429 29.7679 49.3086 25.188 49.3086C20.6081 49.3086 16.8247 46.0429 15.9884 41.7418C15.8689 41.1444 15.8291 40.5471 15.8291 39.9497V17.4883C15.8291 16.9307 15.8689 16.413 15.9087 15.8953C16.7052 7.41252 23.8738 0.761719 32.5557 0.761719C40.5605 0.761719 47.2511 6.37707 48.884 13.904C49.2026 15.059 49.322 16.2537 49.322 17.4883Z" fill="#C8C8C8"/>
</svg>
