<svg width="42" height="42" viewBox="0 0 42 42" fill="none" xmlns="http://www.w3.org/2000/svg">
<rect width="42" height="42" rx="21" fill="url(#paint0_linear_1943_30)"/>
<path d="M24.5156 19.5547C23.5521 20.5182 22.3802 21 21 21C19.6198 21 18.4349 20.5182 17.4453 19.5547C16.4818 18.5651 16 17.3802 16 16C16 14.6198 16.4818 13.4479 17.4453 12.4844C18.4349 11.4948 19.6198 11 21 11C22.3802 11 23.5521 11.4948 24.5156 12.4844C25.5052 13.4479 26 14.6198 26 16C26 17.3802 25.5052 18.5651 24.5156 19.5547ZM24.5156 22.25C25.9479 22.25 27.1719 22.7708 28.1875 23.8125C29.2292 24.8281 29.75 26.0521 29.75 27.4844V29.125C29.75 29.6458 29.5677 30.0885 29.2031 30.4531C28.8385 30.8177 28.3958 31 27.875 31H14.125C13.6042 31 13.1615 30.8177 12.7969 30.4531C12.4323 30.0885 12.25 29.6458 12.25 29.125V27.4844C12.25 26.0521 12.7578 24.8281 13.7734 23.8125C14.8151 22.7708 16.0521 22.25 17.4844 22.25H18.1484C19.0599 22.6667 20.0104 22.875 21 22.875C21.9896 22.875 22.9401 22.6667 23.8516 22.25H24.5156Z" fill="white"/>
<defs>
<linearGradient id="paint0_linear_1943_30" x1="1.58459e-07" y1="-17.3608" x2="56.5987" y2="-4.8898" gradientUnits="userSpaceOnUse">
<stop stop-color="#14AAFE"/>
<stop offset="1" stop-color="#0C77B3"/>
</linearGradient>
</defs>
</svg>
