<svg width="189" height="361" viewBox="0 0 189 361" fill="none" xmlns="http://www.w3.org/2000/svg">
<path d="M378 -365H376.297V173.318C376.297 276.036 292.226 359.521 188.787 359.521C85.348 359.521 1.7027 275.824 1.7027 173.318V-365H0V173.318C0 276.881 84.7095 361 189 361C293.291 361 378 276.881 378 173.318V-365Z" fill="#253053"/>
<path d="M350.544 -365H349.054V173.318C349.054 260.818 277.328 332.256 189 332.256C100.885 332.256 28.946 261.03 28.946 173.318V-365H27.2433V173.318C27.4561 261.664 100.034 333.735 189 333.735C278.179 333.735 350.544 261.664 350.544 173.318V-365Z" fill="#253053"/>
<path d="M323.088 -365H321.385V173.318C321.385 245.812 262.003 304.991 188.787 304.991C115.571 304.991 56.6149 245.812 56.6149 173.318V-365H54.9122V173.318C54.9122 246.869 115.145 306.471 189 306.471C263.068 306.471 323.088 246.658 323.088 173.318V-365Z" fill="#253053"/>
<path d="M295.632 -365H293.929V173.318C293.929 230.806 246.892 277.727 188.787 277.727C130.895 277.727 83.6453 231.017 83.6453 173.318V-365H81.9426V173.318C81.9426 231.652 129.831 279.206 188.574 279.206C247.318 279.206 295.206 231.652 295.206 173.318V-365H295.632Z" fill="#253053"/>
<path d="M268.389 -365H266.686V173.318C266.686 215.8 231.78 250.462 189 250.462C146.22 250.462 111.314 215.8 111.314 173.318V-365H109.612V173.318C109.612 216.645 145.155 251.941 188.787 251.941C232.419 251.941 267.963 216.645 267.963 173.318V-365H268.389Z" fill="#253053"/>
</svg>
