<svg width="363" height="243" viewBox="0 0 363 243" fill="none" xmlns="http://www.w3.org/2000/svg">
<path d="M-363 243L-363 241.297L175.318 241.297C278.036 241.297 361.521 157.226 361.521 53.7872C361.521 -49.652 277.824 -133.297 175.318 -133.297L-363 -133.297L-363 -135L175.318 -135C278.881 -135 363 -50.2905 363 54C363 158.291 278.881 243 175.318 243L-363 243Z" fill="#253053"/>
<path d="M-363 215.544L-363 214.054L175.318 214.054C262.818 214.054 334.256 142.328 334.256 54.0001C334.256 -34.1148 263.03 -106.054 175.318 -106.054L-363 -106.054L-363 -107.757L175.318 -107.757C263.664 -107.544 335.735 -34.9662 335.735 54.0001C335.735 143.179 263.664 215.544 175.318 215.544L-363 215.544Z" fill="#253053"/>
<path d="M-363 188.088L-363 186.385L175.318 186.385C247.812 186.385 306.991 127.003 306.991 53.7872C306.991 -19.4291 247.812 -78.3851 175.318 -78.3851L-363 -78.3852L-363 -80.0879L175.318 -80.0878C248.869 -80.0878 308.471 -19.8547 308.471 54C308.471 128.068 248.658 188.088 175.318 188.088L-363 188.088Z" fill="#253053"/>
<path d="M-363 160.632L-363 158.929L175.318 158.929C232.806 158.929 279.727 111.892 279.727 53.7871C279.727 -4.10474 233.017 -51.3547 175.318 -51.3547L-363 -51.3548L-363 -53.0575L175.318 -53.0574C233.652 -53.0574 281.206 -5.16893 281.206 53.5743C281.206 112.318 233.652 160.206 175.318 160.206L-363 160.206L-363 160.632Z" fill="#253053"/>
<path d="M-363 133.389L-363 131.686L175.318 131.686C217.8 131.686 252.462 96.7805 252.462 54C252.462 11.2196 217.8 -23.6858 175.318 -23.6858L-363 -23.6858L-363 -25.3885L175.318 -25.3885C218.645 -25.3885 253.941 10.1554 253.941 53.7872C253.941 97.419 218.645 132.963 175.318 132.963L-363 132.963L-363 133.389Z" fill="#253053"/>
</svg>
